<svg xmlns="http://www.w3.org/2000/svg" viewBox="0 0 437.212 437.212">
    <path d="M404.812 41.206h-300c-18 0-32.4 14.8-32.4 32.4v186.4c0 18 14.8 32.4 32.4 32.4h206.8l46.8 47.2c2 2 4.4 3.2 7.2 3.2 5.6 0 10.4-4.4 10.4-10.4v-40h28.8c18 0 32.4-14.8 32.4-32.4v-186.4c0-18-14.8-32.4-32.4-32.4zm-254 160.4c-16.4 0-30-13.6-30-30s13.6-30 30-30 30 13.6 30 30-13.2 30-30 30zm105.2 0c-16.4 0-30-13.6-30-30s13.6-30 30-30 30 13.6 30 30-13.6 30-30 30zm104.8 0c-16.4 0-30-13.6-30-30s13.6-30 30-30 30 13.6 30 30-13.6 30-30 30z"/>
    <path d="M54.012 260.806v-63.6h-32.8c-11.6 0-21.2 9.6-21.2 21.2v122.4c-.4 12.4 9.2 22 21.2 22h18.8v26.4c0 3.6 3.2 6.8 6.8 6.8 2 0 3.6-.8 4.8-2l30.8-30.8h136c11.6 0 21.2-9.6 21.2-21.2v-30.4h-134.8c-28 0-50.8-22.8-50.8-50.8z"/>
</svg>