<?xml version="1.0" encoding="utf-8"?>
<!-- Generator: Adobe Illustrator 22.1.0, SVG Export Plug-In . SVG Version: 6.00 Build 0)  -->
<svg version="1.1" id="Layer_1" xmlns="http://www.w3.org/2000/svg" xmlns:xlink="http://www.w3.org/1999/xlink" x="0px" y="0px"
	 viewBox="0 0 138 127" style="enable-background:new 0 0 138 127;" xml:space="preserve">
<path id="Shape" d="M69.8,19.9L69.8,19.9l0.3,0.2v0L69.8,19.9z M69.7,20.1l0.4,0.2v0L69.7,20.1z"/>
<path id="Shape_1_" d="M69.7,19.9L69.7,19.9L69.7,19.9L69.7,19.9L69.7,19.9L69.7,19.9L69.7,19.9L69.7,19.9z M68,19L68,19L68,19
	L68,19L68,19L68,19L68,19L68,19L68,19L68,19L68,19L68,19L68,19L68,19L68,19L68,19L68,19L68,19z"/>
<polygon id="Path" points="69.7,19.9 69.7,19.9 69.7,19.9 69.7,19.9 69.7,20 69.7,20 69.7,19.9 "/>
<polygon id="Shape_2_" points="67.9,19 67.9,19 68,19 68,19 68.1,19 68.2,19 68.2,19 68.2,19.1 68.2,19 "/>
<polygon id="Shape_3_" points="67.9,19 67.9,19 68,19 68,19 68.1,19 68.2,19 68.2,19 68.2,19.1 68.2,19 "/>
<path id="Shape_4_" d="M68,19L68,19L68,19L68,19l0.2,0.1l0,0h0l0,0V19H68z M68.3,19.1L68.3,19.1L68.3,19.1l-0.1-0.1v0h-0.1v0h0
	L68,19l0,0l-0.1,0L68,19l0.1,0l0.1,0.1L68.3,19.1L68.3,19.1L68.3,19.1L68.3,19.1L68.3,19.1L68.3,19.1z"/>
<path id="Shape_5_" d="M68,19L68,19L68,19L68,19l0.2,0.1l0,0h0l0,0V19H68z M68.3,19.1L68.3,19.1L68.3,19.1l-0.1-0.1v0h-0.1v0h0
	L68,19l0,0l-0.1,0L68,19l0.1,0l0.1,0.1L68.3,19.1L68.3,19.1L68.3,19.1L68.3,19.1L68.3,19.1L68.3,19.1z"/>
<path id="Shape_6_" d="M68,19L68,19L68,19L68,19l0.2,0.1l0,0h0l0,0V19H68z M68.3,19.1L68.3,19.1L68.3,19.1l-0.1-0.1v0h-0.1v0h0
	L68,19l0,0l-0.1,0L68,19l0.1,0l0.1,0.1L68.3,19.1L68.3,19.1L68.3,19.1L68.3,19.1L68.3,19.1L68.3,19.1z"/>
<path id="Shape_7_" d="M68,19L68,19L68,19L68,19l0.2,0.1l0,0h0l0,0V19H68z M68.3,19.1L68.3,19.1L68.3,19.1l-0.1-0.1v0h-0.1v0h0
	L68,19l0,0l-0.1,0L68,19l0.1,0l0.1,0.1L68.3,19.1L68.3,19.1L68.3,19.1L68.3,19.1L68.3,19.1L68.3,19.1z"/>
<path id="Shape_8_" d="M68,19L68,19L68,19L68,19l0.2,0.1l0,0h0l0,0V19H68z M68.3,19.1L68.3,19.1L68.3,19.1l-0.1-0.1v0h-0.1v0h0
	L68,19l0,0l-0.1,0L68,19l0.1,0l0.1,0.1L68.3,19.1L68.3,19.1L68.3,19.1L68.3,19.1L68.3,19.1L68.3,19.1z"/>
<path id="Shape_9_" d="M68,19L68,19L68,19L68,19l0.2,0.1l0,0h0l0,0V19H68z M68.3,19.1L68.3,19.1L68.3,19.1l-0.1-0.1v0h-0.1v0h0
	L68,19l0,0l-0.1,0L68,19l0.1,0l0.1,0.1L68.3,19.1L68.3,19.1L68.3,19.1L68.3,19.1L68.3,19.1L68.3,19.1z"/>
<path id="Shape_10_" d="M68,19L68,19L68,19L68,19l0.2,0.1l0,0h0l0,0V19H68z M68.3,19.1L68.3,19.1L68.3,19.1l-0.1-0.1v0h-0.1v0h0
	L68,19l0,0l-0.1,0L68,19l0.1,0l0.1,0.1L68.3,19.1L68.3,19.1L68.3,19.1L68.3,19.1L68.3,19.1L68.3,19.1z"/>
<path id="Shape_11_" d="M68,19L68,19L68,19L68,19l0.2,0.1l0,0h0l0,0V19H68z M68.3,19.1L68.3,19.1L68.3,19.1l-0.1-0.1v0h-0.1v0h0
	L68,19l0,0l-0.1,0L68,19l0.1,0l0.1,0.1L68.3,19.1L68.3,19.1L68.3,19.1L68.3,19.1L68.3,19.1L68.3,19.1z"/>
<path id="Shape_12_" d="M68,19L68,19L68,19L68,19l0.2,0.1l0,0h0l0,0V19H68z M68.3,19.1L68.3,19.1L68.3,19.1l-0.1-0.1v0h-0.1v0h0
	L68,19l0,0l-0.1,0L68,19l0.1,0l0.1,0.1L68.3,19.1L68.3,19.1L68.3,19.1L68.3,19.1L68.3,19.1L68.3,19.1z"/>
<path id="Shape_13_" d="M68,19L68,19L68,19L68,19l0.2,0.1l0,0h0l0,0V19H68z M68.3,19.1L68.3,19.1L68.3,19.1l-0.1-0.1v0h-0.1v0h0
	L68,19l0,0l-0.1,0L68,19l0.1,0l0.1,0.1L68.3,19.1L68.3,19.1L68.3,19.1L68.3,19.1L68.3,19.1L68.3,19.1z"/>
<path id="Shape_14_" d="M69.8,19.9L69.8,19.9L69.8,19.9L69.8,19.9L69.8,19.9L69.8,19.9L69.8,19.9L69.8,19.9L69.8,19.9L69.8,19.9
	L69.8,19.9L69.8,19.9L69.8,19.9z M67.9,19L67.9,19L67.9,19L67.9,19L67.9,19L67.9,19L67.9,19L67.9,19L67.9,19L67.9,19z M68,19L68,19
	L68,19L68,19L68,19L68,19L68,19L68,19L68,19L68,19L68,19L68,19L68,19L68,19L68,19L68,19L68,19L68,19L68,19L68,19z"/>
<path id="Shape_15_" d="M68,19L68,19L68,19L68,19L68,19L68,19L68,19L68,19L68,19L68,19L68,19L68,19L68,19z M68,19L68,19L68,19L68,19
	L68,19L68,19L68,19L68,19L68,19L68,19L68,19L68,19L68,19L68,19L68,19L68,19L68,19L68,19L68,19L68,19z M69.4,19.8L69.4,19.8
	L69.4,19.8L69.4,19.8z M69.8,19.9L69.8,19.9L69.8,19.9L69.8,19.9L69.8,19.9L69.8,19.9L69.8,19.9L69.8,19.9L69.8,19.9L69.8,19.9z"/>
<polygon id="Shape_16_" points="69.5,19.8 69.4,19.8 70,20 "/>
<polygon id="Shape_17_" points="69.5,19.8 69.4,19.8 70,20 "/>
<path id="Shape_18_" d="M69.9,19.8L69.9,19.8l0.2,0.3L69.9,19.8z M69.2,20L69.2,20l0.1-0.1l-0.1-0.1l0,0L69.2,20l0.1,0.3L69.2,20z"
	/>
<polygon id="Shape_19_" points="69.3,19.8 69.2,19.8 69.3,20 69.3,19.9 69.4,19.9 69.4,19.8 "/>
<polygon id="Path_1_" points="69.7,19.9 69.7,19.9 69.7,19.9 69.7,19.9 69.7,19.9 69.7,19.9 69.7,19.9 69.7,19.9 "/>
<polygon id="Path_2_" points="69.7,19.9 69.7,19.9 69.7,19.9 69.7,19.9 69.7,19.9 69.7,19.9 69.7,19.9 69.7,19.9 69.8,19.9 
	69.8,19.9 69.8,19.9 "/>
<polygon id="Path_3_" points="69.7,19.9 69.7,19.9 69.7,19.9 69.7,19.9 69.7,19.9 69.7,19.9 "/>
<polygon id="Path_4_" points="69.7,19.9 69.7,19.9 69.7,19.9 69.7,19.9 69.7,19.9 69.7,19.9 "/>
<polygon id="Shape_20_" points="69.7,19.9 69.8,20 69.8,20 69.9,20.2 70,20.2 70,20 "/>
<polygon id="Shape_21_" points="69.7,19.9 69.8,20 69.8,20 69.9,20.2 70,20.2 70,20 "/>
<polygon id="Shape_22_" points="69.7,19.9 69.8,20 69.8,20 69.9,20.2 70,20.2 70,20 "/>
<polygon id="Shape_23_" points="69.7,19.9 69.8,20 69.8,20 69.9,20.2 70,20.2 70,20 "/>
<path d="M128.7,47.8c-1.9,0-3.7,0.6-5.2,1.6L69.7,20.1V20l-0.1-0.1l0.1,0l0.1,0v0v0l0-0.1h0l0,0v0v0C69.3,8.9,60.3,0.1,49.4,0.1
	C38.1,0.1,29,9.3,29,20.6c0,6.2,2.7,11.7,7,15.4L19.1,49.3c-1.4-0.9-3.2-1.5-5-1.5c-5.1,0-9.3,4.2-9.3,9.3c0,5.2,4.2,9.3,9.3,9.3
	c5.1,0,9.3-4.2,9.3-9.3c0-2-0.6-3.8-1.7-5.3L39,38.2c3,1.8,6.6,2.8,10.3,2.8c3.6,0,7-1,10-2.6l9.4,10.2c-4.6,3.3-7.5,8.7-7.5,14.8
	c0,4.6,1.7,8.9,4.6,12.1L44.5,95.7c-3-2.3-6.7-3.7-10.7-3.7c-9.6,0-17.4,7.8-17.4,17.5c0,9.6,7.8,17.5,17.4,17.5
	c8.6,0,15.7-6.3,17.1-14.5h27.5c0.8,7,6.8,12.4,14,12.4c7.8,0,14.1-6.3,14.1-14.1c0-7.8-6.3-14.1-14.1-14.1
	c-7.1,0-13.1,5.4-13.9,12.3H51.2c-0.1-4.1-1.6-7.8-4.1-10.7l21.3-20.2c3,2.3,6.8,3.7,10.9,3.7c10,0,18.2-8.2,18.2-18.3
	s-8.1-18.2-18.2-18.2c-2.7,0-5.2,0.6-7.4,1.6l-9.6-10.4c3.7-3.1,6.3-7.4,7.1-12.4l-0.1,0v0c0,0,0,0,0,0v0l0.1,0l0,0l0,0L120.9,52h0
	l0,0c-1,1.5-1.5,3.2-1.5,5.1c0,5.2,4.2,9.3,9.3,9.3s9.3-4.2,9.3-9.3C138,52,133.8,47.8,128.7,47.8z M14.1,62.9
	c-3.2,0-5.7-2.6-5.7-5.7s2.6-5.7,5.7-5.7c3.1,0,5.7,2.6,5.7,5.7S17.2,62.9,14.1,62.9z M33.8,121.5c-6.6,0-12-5.4-12-12.1
	c0-6.7,5.4-12.1,12-12.1c6.6,0,12,5.4,12,12.1C45.8,116.1,40.4,121.5,33.8,121.5z M92.4,102c4.8,0,8.7,3.9,8.7,8.7s-3.9,8.7-8.7,8.7
	c-4.8,0-8.7-3.9-8.7-8.7S87.6,102,92.4,102z M79.3,50.5c7,0,12.8,5.8,12.8,12.9c0,7.1-5.7,12.8-12.8,12.8c-7,0-12.8-5.8-12.8-12.8
	C66.6,56.3,72.3,50.5,79.3,50.5z M67.9,19L67.9,19L67.9,19L67.9,19L67.9,19L67.9,19L67.9,19L67.9,19L67.9,19L67.9,19z M49.3,35.7
	c-8.3,0-15-6.8-15-15.1c0-8.3,6.7-15.1,15-15.1s15,6.8,15,15.1C64.3,28.9,57.6,35.7,49.3,35.7z M68,19L68,19L68,19L68,19L68,19
	L68,19L68,19L68,19L68,19L68,19L68,19L68,19L68,19L68,19L68,19L68,19L68,19L68,19L68,19L68,19z M69.2,19.8L69.2,19.8L69.2,19.8
	L69.2,19.8L69.2,19.8L69.2,19.8L69.2,19.8L69.2,19.8z M69.4,19.8L69.4,19.8l0.1,0L69.4,19.8z M128.7,62.9c-3.2,0-5.7-2.6-5.7-5.7
	s2.6-5.7,5.7-5.7c3.1,0,5.7,2.6,5.7,5.7S131.8,62.9,128.7,62.9z"/>
<ellipse id="Oval" cx="106.9" cy="23" rx="4.7" ry="4.8"/>
<path id="Path_5_" d="M79.2,92.1c0,3.3-2.6,5.9-5.9,5.9c-3.2,0-5.9-2.6-5.9-5.9c0-3.3,2.6-5.9,5.9-5.9
	C76.6,86.2,79.2,88.9,79.2,92.1z"/>
<path id="Path_6_" d="M20.8,27.8c0,2.6-2.1,4.8-4.7,4.8c-2.6,0-4.7-2.1-4.7-4.8c0-2.6,2.1-4.8,4.7-4.8C18.7,23,20.8,25.1,20.8,27.8z
	"/>
<ellipse id="Oval_1_" cx="111.8" cy="83.8" rx="3.6" ry="3.6"/>
<path id="Path_7_" d="M44.1,75.5c0,2.8-2.2,5-5,5c-2.7,0-5-2.2-5-5c0-2.8,2.2-5,5-5C41.9,70.5,44.1,72.8,44.1,75.5z"/>
<path id="Path_8_" d="M22.9,78.4c0,2.1-1.7,3.8-3.8,3.8s-3.8-1.7-3.8-3.8c0-2.1,1.7-3.8,3.8-3.8S22.9,76.3,22.9,78.4z"/>
<ellipse id="Oval_2_" cx="3.3" cy="41.9" rx="3.3" ry="3.3"/>
<ellipse id="Oval_3_" cx="63.5" cy="122.6" rx="3.3" ry="3.3"/>
<ellipse id="Oval_4_" cx="102.4" cy="54.3" rx="3.3" ry="3.3"/>
<ellipse id="Oval_5_" cx="41.8" cy="53.9" rx="3.3" ry="3.3"/>
<ellipse id="Oval_6_" cx="79.7" cy="12.1" rx="3.3" ry="3.3"/>
<g id="Group_1_" transform="translate(67.000000, 20.000000)">
	<path id="Path_9_" d="M56.7,31.7L56.7,31.7"/>
	<path id="Path_10_" d="M0.3,0.3L0.3,0.3"/>
	<path id="Path_11_" d="M0,0"/>
</g>
</svg>
