<?xml version="1.0" encoding="utf-8"?>
<!-- Generator: Adobe Illustrator 22.1.0, SVG Export Plug-In . SVG Version: 6.00 Build 0)  -->
<svg version="1.1" id="Layer_1" xmlns="http://www.w3.org/2000/svg" xmlns:xlink="http://www.w3.org/1999/xlink" x="0px" y="0px"
	 viewBox="0 0 863 342" style="enable-background:new 0 0 863 342;" xml:space="preserve">
<style type="text/css">
	.st0{fill:none;}
	.st1{fill:url(#SVGID_1_);}
</style>
<path class="st0" d="M147,181c11,0,21.6,1.2,31.9,3.5C212.1,129.1,272.7,92,342,92c42.5,0,81.7,13.9,113.3,37.5
	C494.3,52.7,574,0,666,0H0v328C0,246.8,65.8,181,147,181z"/>
<path class="st0" d="M0,328v14h0.7C0.2,337.4,0,332.7,0,328z"/>
<path class="st0" d="M863,106V0H666C748.3,0,820.8,42.1,863,106z"/>
<linearGradient id="SVGID_1_" gradientUnits="userSpaceOnUse" x1="0" y1="171" x2="863" y2="171">
	<stop  offset="0" style="stop-color:#738AC3"/>
	<stop  offset="1" style="stop-color:#36A4C8"/>
</linearGradient>
<path class="st1" d="M863,342V106C820.8,42.1,748.3,0,666,0c-92,0-171.7,52.7-210.7,129.5C423.7,105.9,384.5,92,342,92
	c-69.3,0-129.9,37.1-163.1,92.5c-10.3-2.3-21-3.5-31.9-3.5C65.8,181,0,246.8,0,328c0,4.7,0.2,9.4,0.7,14H863z"/>
</svg>
