<!-- Generated by IcoMoon.io -->
<svg version="1.1" xmlns="http://www.w3.org/2000/svg" width="32" height="32" viewBox="0 0 32 32">
<title>uniF131</title>
<path d="M24.693 3.997v0c0.13-0.006 0.265 0 0.395 0.006 0.774 0.045 1.497 0.322 2.039 0.864 0.819 0.825 1.028 2.044 0.768 3.259s-0.966 2.474-2.039 3.547c-0.226 0.226-0.463 0.435-0.706 0.627v4.213c0 0.158-0.062 0.305-0.169 0.418l-10.911 10.905c-0.226 0.226-0.599 0.226-0.825 0l-9.076-9.076c-0.226-0.226-0.226-0.599 0-0.825l10.905-10.911c0.096-0.096 0.226-0.158 0.361-0.17h5.811c0.158 0 0.305 0.062 0.418 0.17l2.745 2.75c0.017 0.017 0.040 0.034 0.057 0.056 0.215 0.243 0.186 0.61-0.057 0.825s-0.61 0.186-0.825-0.057l-2.575-2.575h-5.281l-10.329 10.324 8.262 8.246 10.318-10.318v-3.191c-0.548 0.294-1.107 0.508-1.66 0.627-0.175 0.034-0.356 0.062-0.531 0.079-0.136 0.305-0.322 0.593-0.57 0.841-1.062 1.062-2.79 1.062-3.852 0s-1.062-2.79 0-3.852c0.531-0.531 1.226-0.796 1.926-0.796s1.395 0.265 1.926 0.796c0.113 0.107 0.215 0.22 0.299 0.344 0.186 0.265 0.13 0.633-0.136 0.819s-0.633 0.13-0.819-0.136c-0.051-0.073-0.107-0.141-0.169-0.203-0.61-0.61-1.587-0.61-2.197 0s-0.61 1.587 0 2.197c0.61 0.61 1.587 0.61 2.197 0 0.028-0.028 0.051-0.062 0.079-0.090-0.537-0.124-1.022-0.373-1.418-0.768-0.232-0.232-0.418-0.497-0.553-0.785-0.136-0.294-0.011-0.638 0.277-0.779 0.294-0.141 0.644-0.023 0.785 0.271 0.085 0.175 0.186 0.328 0.322 0.463 0.48 0.48 1.242 0.655 2.191 0.452s2.033-0.791 2.959-1.717 1.514-2.011 1.717-2.959c0.198-0.949 0.028-1.711-0.452-2.191-0.418-0.418-1.050-0.599-1.852-0.503-0.796 0.102-1.734 0.491-2.598 1.158-0.26 0.198-0.627 0.153-0.825-0.107s-0.147-0.627 0.107-0.825c1.005-0.779 2.118-1.259 3.174-1.389 0.13-0.017 0.254-0.028 0.384-0.034z"></path>
</svg>
