<svg width="11px" height="15px" viewBox="0 0 11 15" version="1.1" xmlns="http://www.w3.org/2000/svg"
     xmlns:xlink="http://www.w3.org/1999/xlink">
    <g id="BitDust" stroke="none" stroke-width="1" fill="none" fill-rule="evenodd">
        <g id="Main-page" transform="translate(-723.000000, -455.000000)" fill="#000000" fill-rule="nonzero">
            <g id="noun_24778_cc" transform="translate(723.000000, 455.000000)">
                <path
                    d="M10.9975556,4.031875 C10.9975556,3.595 10.6516667,3.240625 10.2238889,3.240625 L8.42538889,3.240625 C8.30744444,1.68875 7.04794444,0.458125 5.5,0.458125 C3.95205556,0.458125 2.69255556,1.68875 2.57461111,3.240625 L0.776111111,3.240625 C0.348944444,3.240625 0.00183333333,3.594375 0.00183333333,4.031875 C0.00183333333,4.451875 0.3245,4.7875 0.728444444,4.81375 L0.728444444,13.75 C0.728444444,14.186875 1.07494444,14.541875 1.50272222,14.541875 L7.05038889,14.541875 L9.49727778,14.541875 C9.92444444,14.541875 10.2709444,14.1875 10.2709444,13.75 L10.2709444,4.81375 C10.6755,4.788125 10.9975556,4.4525 10.9975556,4.031875 Z M5.5,2.04125 C6.19422222,2.04125 6.76866667,2.5625 6.87805556,3.24125 L4.12133333,3.24125 C4.23133333,2.5625 4.80577778,2.04125 5.5,2.04125 Z M7.05038889,12.958125 L2.27638889,12.958125 L2.27638889,4.82375 L8.72361111,4.82375 L8.72361111,12.95875 L7.05038889,12.95875 L7.05038889,12.958125 Z"
                    id="Shape"></path>
                <path
                    d="M4.22522222,6.30375 C3.79805556,6.30375 3.45094444,6.6575 3.45094444,7.095 L3.45094444,10.805 C3.45094444,11.241875 3.79744444,11.596875 4.22522222,11.596875 C4.653,11.596875 4.99888889,11.2425 4.99888889,10.805 L4.99888889,7.095 C4.99827778,6.6575 4.65238889,6.30375 4.22522222,6.30375 Z"
                    id="Shape"></path>
                <path
                    d="M6.75461111,6.30375 C6.32744444,6.30375 5.98094444,6.6575 5.98094444,7.095 L5.98094444,10.805 C5.98094444,11.241875 6.32744444,11.596875 6.75461111,11.596875 C7.18177778,11.596875 7.52827778,11.2425 7.52827778,10.805 L7.52827778,7.095 C7.52766667,6.6575 7.18177778,6.30375 6.75461111,6.30375 Z"
                    id="Shape"></path>
            </g>
        </g>
    </g>
</svg>
