<svg width="28px" height="28px" viewBox="0 0 28 28" version="1.1" xmlns="http://www.w3.org/2000/svg"
     xmlns:xlink="http://www.w3.org/1999/xlink">
    <defs></defs>
    <g id="Designs" stroke="none" stroke-width="1" fill="none" fill-rule="evenodd">
        <g id="User-Home" transform="translate(-140.000000, -623.000000)" fill="#333333" fill-rule="nonzero"
           stroke="#333333" stroke-width="0.9">
            <g id="noun_322208_cc" transform="translate(141.000000, 624.000000)">
                <path
                    d="M13.5,18 C15.9875776,18 18,15.9875776 18,13.5 C18,11.0124224 15.9875776,9 13.5,9 C11.0124224,9 9,11.0124224 9,13.5 C9,15.9596273 11.0124224,18 13.5,18 Z M13.5,10.1180124 C15.3726708,10.1180124 16.8819876,11.6273292 16.8819876,13.5 C16.8819876,15.3447205 15.3726708,16.8540373 13.5,16.8540373 C11.6273292,16.8540373 10.1180124,15.3447205 10.1180124,13.4720497 C10.1459627,11.6273292 11.6552795,10.1180124 13.5,10.1180124 Z"
                    id="Shape"></path>
                <path
                    d="M3.35111111,16.3403782 L3.52444444,16.3403782 L3.92888889,17.323693 L3.81333333,17.4393771 C2.51333333,18.7408231 2.51333333,20.8520578 3.81333333,22.1824249 C4.44888889,22.8186874 5.28666667,23.1657397 6.18222222,23.1657397 C7.07777778,23.1657397 7.91555556,22.8186874 8.55111111,22.1824249 L8.66666667,22.0667408 L9.64888889,22.4716352 L9.64888889,22.6451613 C9.64888889,24.4961068 11.1511111,26 13,26 C14.8488889,26 16.3511111,24.4961068 16.3511111,22.6451613 L16.3511111,22.4716352 L17.3333333,22.0667408 L17.4488889,22.1824249 C18.7488889,23.483871 20.8577778,23.483871 22.1866667,22.1824249 C23.4866667,20.8809789 23.4866667,18.7697442 22.1866667,17.4393771 L22.0711111,17.323693 L22.4755556,16.3403782 L22.6488889,16.3403782 C24.4977778,16.3403782 26,14.836485 26,12.9855395 C26,11.134594 24.4977778,9.63070078 22.6488889,9.63070078 L22.4755556,9.63070078 L22.0422222,8.67630701 L22.1577778,8.56062291 C23.4577778,7.25917686 23.4577778,5.14794216 22.1577778,3.81757508 C20.8577778,2.51612903 18.7488889,2.51612903 17.42,3.81757508 L17.3044444,3.93325918 L16.3222222,3.52836485 L16.3222222,3.35483871 C16.3222222,1.50389321 14.82,0 12.9711111,0 C11.1222222,0 9.62,1.50389321 9.62,3.35483871 L9.62,3.52836485 L8.66666667,3.93325918 L8.55111111,3.81757508 C7.25111111,2.51612903 5.14222222,2.51612903 3.81333333,3.81757508 C2.51333333,5.11902113 2.51333333,7.23025584 3.81333333,8.56062291 L3.92888889,8.67630701 L3.52444444,9.6596218 L3.35111111,9.6596218 C1.50222222,9.6596218 0,11.163515 0,12.9855395 C0,14.836485 1.50222222,16.3403782 3.35111111,16.3403782 Z M3.35111111,10.8164627 L4.30444444,10.8164627 L5.31555556,8.38709677 L4.62222222,7.72191324 C3.78444444,6.88320356 3.78444444,5.49499444 4.62222222,4.65628476 C5.46,3.81757508 6.84666667,3.81757508 7.68444444,4.65628476 L8.37777778,5.35038932 L10.8044444,4.3381535 L10.8044444,3.38375973 C10.8044444,2.19799778 11.7866667,1.21468298 12.9711111,1.21468298 C14.1555556,1.21468298 15.1377778,2.19799778 15.1377778,3.38375973 L15.1377778,4.3381535 L17.5644444,5.35038932 L18.2577778,4.65628476 C19.0955556,3.81757508 20.4822222,3.81757508 21.32,4.65628476 C22.1577778,5.49499444 22.1577778,6.88320356 21.32,7.72191324 L20.6555556,8.38709677 L21.6666667,10.8164627 L22.62,10.8164627 C23.8044444,10.8164627 24.7866667,11.7997775 24.7866667,12.9855395 C24.7866667,14.1713014 23.8044444,15.1546162 22.62,15.1546162 L21.6666667,15.1546162 L20.6555556,17.5839822 L21.3488889,18.2780868 C22.1866667,19.1167964 22.1866667,20.5050056 21.3488889,21.3437152 C20.5111111,22.1824249 19.1244444,22.1824249 18.2866667,21.3437152 L17.5933333,20.6496107 L15.1666667,21.6907675 L15.1666667,22.6451613 C15.1666667,23.8309232 14.1844444,24.814238 13,24.814238 C11.8155556,24.814238 10.8333333,23.8309232 10.8333333,22.6451613 L10.8333333,21.6907675 L8.37777778,20.6785317 L7.68444444,21.3726363 C7.28,21.7775306 6.73111111,22.0088988 6.15333333,22.0088988 C5.57555556,22.0088988 5.02666667,21.7775306 4.62222222,21.3726363 C3.78444444,20.5339266 3.78444444,19.1457175 4.62222222,18.3070078 L5.31555556,17.6129032 L4.30444444,15.1835373 L3.35111111,15.1835373 C2.16666667,15.1835373 1.18444444,14.2002225 1.18444444,13.0144605 C1.18444444,11.7997775 2.13777778,10.8164627 3.35111111,10.8164627 Z"
                    id="Shape"></path>
            </g>
        </g>
    </g>
</svg>
