<?xml version="1.0" encoding="utf-8"?>
<!-- Generator: Adobe Illustrator 22.1.0, SVG Export Plug-In . SVG Version: 6.00 Build 0)  -->
<svg version="1.1" id="Layer_1" xmlns="http://www.w3.org/2000/svg" xmlns:xlink="http://www.w3.org/1999/xlink" x="0px" y="0px"
	 viewBox="0 0 198 198" style="enable-background:new 0 0 198 198;" xml:space="preserve">
<path d="M188.9,58.9c2.5-2.5,4.1-6,4.1-9.9c0-7.7-6.3-14-14-14c-1.6,0-3.1,0.3-4.5,0.8C156.4,14.2,129.3,0.5,99,0.5
	C44.7,0.5,0.5,44.7,0.5,99c0,54.3,44.2,98.5,98.5,98.5c54.3,0,98.5-44.2,98.5-98.5C197.5,84.7,194.4,71.1,188.9,58.9z M99,188.5
	c-49.4,0-89.5-40.1-89.5-89.5S49.6,9.5,99,9.5c27.4,0,51.9,12.4,68.3,31.8c-1.5,2.2-2.3,4.9-2.3,7.7c0,7.7,6.3,14,14,14
	c0.6,0,1.3-0.1,1.9-0.1c4.9,11.1,7.6,23.3,7.6,36.1C188.5,148.4,148.4,188.5,99,188.5z"/>
</svg>
