<svg width="36px" height="23px" viewBox="0 0 36 23" version="1.1" xmlns="http://www.w3.org/2000/svg"
     xmlns:xlink="http://www.w3.org/1999/xlink">
    <defs></defs>
    <g id="Designs" stroke="none" stroke-width="1" fill="none" fill-rule="evenodd">
        <g id="User-Home" transform="translate(-135.000000, -527.000000)" fill="#76BE28" fill-rule="nonzero"
           stroke="#76BE28">
            <g id="noun_396699_cc" transform="translate(136.000000, 528.000000)">
                <path
                    d="M33.9414374,16.9236684 C33.0010112,12.8920386 29.8223069,9.73129371 25.7345288,8.76312828 C26.9446992,7.80461688 27.641148,6.35300484 27.6241195,4.82464366 C27.6241195,2.16616654 25.6224345,0 23.1963922,0 C20.77035,0 18.7766717,2.15828957 18.7766717,4.81676669 C18.7573193,6.3430049 19.4490559,7.79401817 20.6542522,8.75525131 C18.3430785,9.29488999 16.2731936,10.5598243 14.7572882,12.3589647 C14.2942846,12.1803571 13.8194538,12.0329793 13.3360918,11.9178545 C14.5462622,10.9593431 15.242711,9.50773102 15.2256825,7.97936984 C15.2256825,5.32089272 13.2239975,3.15472618 10.7979552,3.15472618 C8.37191297,3.15472618 6.36622458,5.30907727 6.36622458,7.96755439 C6.3491961,9.49591557 7.04564482,10.9475276 8.25581524,11.906039 C4.10048195,12.8784244 0.887472606,16.1206438 0.00486959676,20.2319955 C-0.00162319892,20.2816785 -0.00162319892,20.3319749 0.00486959676,20.3816579 C0.00486959676,20.3816579 0.00486959676,20.3816579 0.00486959676,20.4092273 C0.00486959676,20.7355021 0.273725069,21 0.605375102,21 L20.986532,21 C21.1670678,20.9997776 21.3380538,20.920184 21.4527132,20.7829936 C21.5673726,20.6458031 21.6137033,20.4653764 21.5790307,20.2910728 C21.5656862,20.22018 21.5496727,20.1479745 21.5309903,20.0744561 C21.3494427,19.3043432 21.0808808,18.5566314 20.7303163,17.8452738 L33.3809656,17.8452738 C33.5634416,17.849587 33.7381285,17.7725556 33.8562752,17.6356774 C33.9744219,17.4987992 34.0233769,17.3167313 33.9894778,17.1402851 C33.9734644,17.0693923 33.9574509,16.9971868 33.9414374,16.9236684 Z M19.9776827,4.81676669 C19.9776827,2.80813953 21.4269027,1.17366842 23.204399,1.17366842 C24.9818953,1.17366842 26.4311152,2.80813953 26.4311152,4.81676669 C26.4311152,6.82539385 24.9778919,8.45986497 23.1803787,8.45986497 C21.3828656,8.45986497 19.9776827,6.82539385 19.9776827,4.81676669 Z M7.5672356,7.96755439 C7.5672356,5.95892723 9.01645555,4.32445611 10.7939518,4.32445611 C12.5714481,4.32445611 14.0206681,5.95892723 14.0206681,7.96755439 C14.0206681,9.97618155 12.5674448,11.6106527 10.7699316,11.6106527 C8.97241848,11.6106527 7.5672356,9.97618155 7.5672356,7.96755439 Z M10.7699316,12.792198 C15.1565969,12.8080751 19.0060123,15.6708094 20.2178849,19.8184546 L1.35000193,19.8184546 C2.55200289,15.6758808 6.39095898,12.8124316 10.7699316,12.792198 Z M15.8822352,12.8591523 C17.7351613,10.8090128 20.3918266,9.6376925 23.1803787,9.64141035 C27.567044,9.65728745 31.4164594,12.5200217 32.628332,16.6676669 L20.0937804,16.6676669 C19.0499261,15.0599046 17.5984391,13.74732 15.8822352,12.8591523 Z"
                    id="Shape"></path>
            </g>
        </g>
    </g>
</svg>
