<svg width="17px" height="21px" viewBox="0 0 17 21" version="1.1" xmlns="http://www.w3.org/2000/svg"
     xmlns:xlink="http://www.w3.org/1999/xlink">
    <defs></defs>
    <g id="Designs" stroke="none" stroke-width="1" fill="none" fill-rule="evenodd">
        <g id="User-Home" transform="translate(-144.000000, -431.000000)" fill-rule="nonzero"
           stroke="#b3b3b3">
            <g id="Group-4" transform="translate(49.000000, 392.000000)">
                <g id="noun_205170_cc" transform="translate(96.000000, 40.000000)">
                    <path
                        d="M10,8 C8.34,8 7,6.66 7,5 L7,1 L3,1 C1.9,1 1,1.9 1,3 L1,16 C1,17.1 1.9,18 3,18 L12,18 C13.1,18 14,17.1 14,16 L14,8 L10,8 Z M8,5 C8,6.1 8.9,7 10,7 L13.59,7 L8,1.41 L8,5 Z M3,0 L8,0 L15,7 L15,16 C15,17.66 13.66,19 12,19 L3,19 C1.34,19 0,17.66 0,16 L0,3 C0,1.34 1.34,0 3,0 Z"
                        id="Shape"></path>
                </g>
            </g>
        </g>
    </g>
</svg>
