<svg width="14px" height="18px" viewBox="0 0 14 18" version="1.1" xmlns="http://www.w3.org/2000/svg"
     xmlns:xlink="http://www.w3.org/1999/xlink">
    <g id="BitDust" stroke="none" stroke-width="1" fill="none" fill-rule="evenodd">
        <g id="Main-page" transform="translate(-723.000000, -424.000000)" fill="#000000" fill-rule="nonzero">
            <g id="noun_185342_cc" transform="translate(723.000000, 424.000000)">
                <path
                    d="M6.36363636,1.22142857 C6.36363636,0.9 6.61818182,0.578571429 6.93636364,0.578571429 C7.25454545,0.578571429 7.57272727,0.835714286 7.57272727,1.22142857 C7.57272727,4.69285714 7.57272727,8.16428571 7.57272727,11.6357143 C8.20909091,11.1214286 8.90909091,10.6071429 9.54545455,10.0285714 C9.73636364,9.83571429 10.1181818,9.77142857 10.3727273,9.96428571 C10.6909091,10.1571429 10.6909091,10.7357143 10.3727273,10.9285714 C9.41818182,11.7 8.4,12.4714286 7.44545455,13.2428571 C7.25454545,13.5 6.80909091,13.5642857 6.55454545,13.3714286 C5.53636364,12.5357143 4.51818182,11.7642857 3.5,10.9285714 C3.24545455,10.7357143 3.18181818,10.35 3.37272727,10.0928571 C3.56363636,9.83571429 4.00909091,9.77142857 4.26363636,9.96428571 C4.96363636,10.4785714 5.66363636,11.0571429 6.3,11.5714286 C6.36363636,8.16428571 6.36363636,4.69285714 6.36363636,1.22142857 Z M0.763636364,16.1357143 C4.9,16.1357143 8.97272727,16.1357143 13.1090909,16.1357143 C13.4272727,16.1357143 13.8090909,16.3928571 13.7454545,16.7785714 C13.7454545,17.1 13.4272727,17.4214286 13.1090909,17.4214286 C9.03636364,17.4214286 4.96363636,17.4214286 0.890909091,17.4214286 C0.572727273,17.4214286 0.254545455,17.1642857 0.254545455,16.8428571 C0.190909091,16.5214286 0.445454545,16.2 0.763636364,16.1357143 Z"
                    id="Shape"></path>
            </g>
        </g>
    </g>
</svg>
