<svg width="12px" height="12px" viewBox="0 0 12 12" version="1.1" xmlns="http://www.w3.org/2000/svg"
     xmlns:xlink="http://www.w3.org/1999/xlink">
    <g id="BitDust" stroke="none" stroke-width="1" fill="none" fill-rule="evenodd">
        <g id="Main-page" transform="translate(-723.000000, -397.000000)" fill="#000000" fill-rule="nonzero">
            <path
                d="M735,399.001298 C735,398.451006 734.807542,397.983777 734.422627,397.599611 C734.037711,397.19987 733.569571,397 733.018205,397 C732.451235,397 731.975293,397.19987 731.590377,397.599611 C731.205462,397.983777 731.013004,398.451006 731.013004,399.001298 L731.013004,399.203764 L726.581274,401.804672 C726.16515,401.269955 725.639792,401.002596 725.005202,401.002596 C724.438231,401.002596 723.962289,401.202466 723.577373,401.602206 C723.192458,401.986372 723,402.453602 723,403.003894 C723,403.56976 723.192458,404.044776 723.577373,404.428942 C723.962289,404.813108 724.438231,405.005191 725.005202,405.005191 C725.655397,405.005191 726.188557,404.730045 726.604681,404.179753 L731.013004,406.804023 L731.013004,406.998702 C731.013004,407.564568 731.205462,408.039585 731.590377,408.423751 C731.975293,408.807917 732.451235,409 733.018205,409 C733.569571,409 734.037711,408.807917 734.422627,408.423751 C734.807542,408.039585 735,407.564568 735,406.998702 C735,406.44841 734.807542,405.983777 734.422627,405.604802 C734.037711,405.205062 733.569571,405.005191 733.018205,405.005191 C732.331599,405.005191 731.788036,405.288125 731.387516,405.853991 L726.979194,403.198572 L727.010403,403.003894 L726.979194,402.848151 L731.418726,400.200519 C731.782835,400.735237 732.315995,401.002596 733.018205,401.002596 C733.569571,401.002596 734.037711,400.810513 734.422627,400.426347 C734.807542,400.04218 735,399.567164 735,399.001298 Z"
                id="Shape"></path>
        </g>
    </g>
</svg>
