<?xml version="1.0" encoding="UTF-8"?>
<svg width="225px" height="226px" viewBox="0 0 225 226" version="1.1" xmlns="http://www.w3.org/2000/svg" xmlns:xlink="http://www.w3.org/1999/xlink">
    <!-- Generator: Sketch 52.5 (67469) - http://www.bohemiancoding.com/sketch -->
    <title>astronaut</title>
    <desc>Created with Sketch.</desc>
    <defs>
        <linearGradient x1="97.5038377%" y1="100%" x2="0%" y2="0%" id="linearGradient-1">
            <stop stop-color="#964CAE" offset="0%"></stop>
            <stop stop-color="#008FBA" offset="100%"></stop>
        </linearGradient>
        <linearGradient x1="79.9187635%" y1="6.93008204%" x2="-8.89663446%" y2="106.891764%" id="linearGradient-2">
            <stop stop-color="#9C3FEA" offset="0%"></stop>
            <stop stop-color="#3D6FD3" offset="50%"></stop>
            <stop stop-color="#252784" offset="100%"></stop>
        </linearGradient>
        <linearGradient x1="177.341338%" y1="46.8880222%" x2="58.1181535%" y2="49.4471102%" id="linearGradient-3">
            <stop stop-color="#FCFBFF" offset="0%"></stop>
            <stop stop-color="#F5EDE9" offset="48%"></stop>
            <stop stop-color="#A5ADBE" offset="100%"></stop>
        </linearGradient>
        <linearGradient x1="-36.3857585%" y1="150.308325%" x2="78.0830406%" y2="17.368962%" id="linearGradient-4">
            <stop stop-color="#FCFBFF" offset="0%"></stop>
            <stop stop-color="#F5EDE9" offset="48%"></stop>
            <stop stop-color="#A5ADBE" offset="100%"></stop>
        </linearGradient>
        <linearGradient x1="-27.2871917%" y1="157.640622%" x2="60.938743%" y2="34.7854944%" id="linearGradient-5">
            <stop stop-color="#FCFBFF" offset="0%"></stop>
            <stop stop-color="#F5EDE9" offset="48%"></stop>
            <stop stop-color="#A5ADBE" offset="100%"></stop>
        </linearGradient>
        <linearGradient x1="241.149176%" y1="163.421621%" x2="-42.9028883%" y2="2.90064224%" id="linearGradient-6">
            <stop stop-color="#FCFBFF" offset="0%"></stop>
            <stop stop-color="#F5EDE9" offset="48%"></stop>
            <stop stop-color="#A5ADBE" offset="100%"></stop>
        </linearGradient>
        <linearGradient x1="352.595302%" y1="160.117657%" x2="-27.1776198%" y2="18.2637285%" id="linearGradient-7">
            <stop stop-color="#FCFBFF" offset="0%"></stop>
            <stop stop-color="#F5EDE9" offset="48%"></stop>
            <stop stop-color="#A5ADBE" offset="100%"></stop>
        </linearGradient>
        <linearGradient x1="15.8802178%" y1="232.747253%" x2="56.7150635%" y2="-8.02197802%" id="linearGradient-8">
            <stop stop-color="#FCFBFF" offset="0%"></stop>
            <stop stop-color="#F5EDE9" offset="22%"></stop>
            <stop stop-color="#A5ADBE" offset="100%"></stop>
        </linearGradient>
        <linearGradient x1="71.0038688%" y1="285.631794%" x2="29.4433906%" y2="-129.85881%" id="linearGradient-9">
            <stop stop-color="#AF3E5E" offset="0%"></stop>
            <stop stop-color="#000741" offset="96%"></stop>
        </linearGradient>
        <linearGradient x1="157.422979%" y1="46.571433%" x2="-13.6412796%" y2="53.8003235%" id="linearGradient-10">
            <stop stop-color="#FCFBFF" offset="0%"></stop>
            <stop stop-color="#F5EDE9" offset="48%"></stop>
            <stop stop-color="#A5ADBE" offset="100%"></stop>
        </linearGradient>
        <linearGradient x1="-108.552345%" y1="149.583621%" x2="91.8798568%" y2="24.9674363%" id="linearGradient-11">
            <stop stop-color="#FCFBFF" offset="0%"></stop>
            <stop stop-color="#F5EDE9" offset="48%"></stop>
            <stop stop-color="#A5ADBE" offset="100%"></stop>
        </linearGradient>
        <linearGradient x1="50%" y1="422.108844%" x2="50%" y2="-7.82312925%" id="linearGradient-12">
            <stop stop-color="#FCFBFF" offset="0%"></stop>
            <stop stop-color="#F5EDE9" offset="48%"></stop>
            <stop stop-color="#A5ADBE" offset="100%"></stop>
        </linearGradient>
        <linearGradient x1="123.050797%" y1="-12.6721668%" x2="-121.684514%" y2="202.400862%" id="linearGradient-13">
            <stop stop-color="#FBC19E" offset="0%"></stop>
            <stop stop-color="#FFB699" offset="48%"></stop>
            <stop stop-color="#F47E6D" offset="100%"></stop>
        </linearGradient>
        <linearGradient x1="120.457604%" y1="138.067839%" x2="16.5545087%" y2="3.6493702%" id="linearGradient-14">
            <stop stop-color="#FBC19E" offset="0%"></stop>
            <stop stop-color="#FFB699" offset="48%"></stop>
            <stop stop-color="#F47E6D" offset="100%"></stop>
        </linearGradient>
        <linearGradient x1="150.529086%" y1="-15.1781345%" x2="-148.954238%" y2="195.011846%" id="linearGradient-15">
            <stop stop-color="#AF3E5E" offset="0%"></stop>
            <stop stop-color="#000741" offset="96%"></stop>
        </linearGradient>
        <linearGradient x1="-90.9501208%" y1="96.0687961%" x2="189.535809%" y2="14.8239148%" id="linearGradient-16">
            <stop stop-color="#AF3E5E" offset="0%"></stop>
            <stop stop-color="#000741" offset="96%"></stop>
        </linearGradient>
        <linearGradient x1="309.863946%" y1="-44.8979592%" x2="-147.959184%" y2="122.108844%" id="linearGradient-17">
            <stop stop-color="#FCFBFF" offset="0%"></stop>
            <stop stop-color="#F5EDE9" offset="48%"></stop>
            <stop stop-color="#A5ADBE" offset="100%"></stop>
        </linearGradient>
        <linearGradient x1="167.311977%" y1="321.311475%" x2="73.3742134%" y2="108.852459%" id="linearGradient-18">
            <stop stop-color="#FCFBFF" offset="0%"></stop>
            <stop stop-color="#F5EDE9" offset="48%"></stop>
            <stop stop-color="#A5ADBE" offset="100%"></stop>
        </linearGradient>
        <linearGradient x1="835.036496%" y1="429.268293%" x2="-43.7956204%" y2="2.43902439%" id="linearGradient-19">
            <stop stop-color="#FCFBFF" offset="0%"></stop>
            <stop stop-color="#F5EDE9" offset="48%"></stop>
            <stop stop-color="#A5ADBE" offset="100%"></stop>
        </linearGradient>
        <linearGradient x1="824.087591%" y1="426.829268%" x2="-55.4744526%" y2="0%" id="linearGradient-20">
            <stop stop-color="#FCFBFF" offset="0%"></stop>
            <stop stop-color="#F5EDE9" offset="48%"></stop>
            <stop stop-color="#A5ADBE" offset="100%"></stop>
        </linearGradient>
        <linearGradient x1="813.138686%" y1="421.95122%" x2="-66.4233577%" y2="-4.87804878%" id="linearGradient-21">
            <stop stop-color="#FCFBFF" offset="0%"></stop>
            <stop stop-color="#F5EDE9" offset="48%"></stop>
            <stop stop-color="#A5ADBE" offset="100%"></stop>
        </linearGradient>
        <linearGradient x1="-8.65779463%" y1="691.47541%" x2="45.3952244%" y2="88.852459%" id="linearGradient-22">
            <stop stop-color="#FCFBFF" offset="0%"></stop>
            <stop stop-color="#F5EDE9" offset="48%"></stop>
            <stop stop-color="#A5ADBE" offset="100%"></stop>
        </linearGradient>
        <linearGradient x1="625.547445%" y1="48.7804878%" x2="416.058394%" y2="48.7804878%" id="linearGradient-23">
            <stop stop-color="#FCFBFF" offset="0%"></stop>
            <stop stop-color="#F5EDE9" offset="48%"></stop>
            <stop stop-color="#A5ADBE" offset="100%"></stop>
        </linearGradient>
        <linearGradient x1="625.547445%" y1="51.2195122%" x2="416.058394%" y2="51.2195122%" id="linearGradient-24">
            <stop stop-color="#FCFBFF" offset="0%"></stop>
            <stop stop-color="#F5EDE9" offset="48%"></stop>
            <stop stop-color="#A5ADBE" offset="100%"></stop>
        </linearGradient>
        <linearGradient x1="410.506824%" y1="126.219209%" x2="15.9699342%" y2="37.7539612%" id="linearGradient-25">
            <stop stop-color="#FCFBFF" offset="0%"></stop>
            <stop stop-color="#F5EDE9" offset="48%"></stop>
            <stop stop-color="#A5ADBE" offset="100%"></stop>
        </linearGradient>
        <linearGradient x1="25.0149978%" y1="165.124489%" x2="45.2569%" y2="74.5428908%" id="linearGradient-26">
            <stop stop-color="#FCFBFF" offset="0%"></stop>
            <stop stop-color="#F5EDE9" offset="22%"></stop>
            <stop stop-color="#A5ADBE" offset="100%"></stop>
        </linearGradient>
        <linearGradient x1="-81.7589577%" y1="141.818182%" x2="271.661238%" y2="-104.772727%" id="linearGradient-27">
            <stop stop-color="#FCFBFF" offset="0%"></stop>
            <stop stop-color="#F5EDE9" offset="22%"></stop>
            <stop stop-color="#A5ADBE" offset="100%"></stop>
        </linearGradient>
        <linearGradient x1="-69.8670271%" y1="149.027482%" x2="305.000138%" y2="-160.404274%" id="linearGradient-28">
            <stop stop-color="#FCFBFF" offset="0%"></stop>
            <stop stop-color="#F5EDE9" offset="22%"></stop>
            <stop stop-color="#A5ADBE" offset="100%"></stop>
        </linearGradient>
        <linearGradient x1="181.892805%" y1="30.2647276%" x2="-54.2413403%" y2="69.4698014%" id="linearGradient-29">
            <stop stop-color="#FCFBFF" offset="0%"></stop>
            <stop stop-color="#F5EDE9" offset="22%"></stop>
            <stop stop-color="#A5ADBE" offset="100%"></stop>
        </linearGradient>
        <linearGradient x1="157.641403%" y1="72.4886479%" x2="-16.8049094%" y2="37.48158%" id="linearGradient-30">
            <stop stop-color="#AF3E5E" offset="0%"></stop>
            <stop stop-color="#000741" offset="96%"></stop>
        </linearGradient>
        <linearGradient x1="155.173623%" y1="2.51687279%" x2="-158.095378%" y2="132.082514%" id="linearGradient-31">
            <stop stop-color="#AF3E5E" offset="0%"></stop>
            <stop stop-color="#000741" offset="96%"></stop>
        </linearGradient>
        <linearGradient x1="131.92389%" y1="121.875%" x2="14.0063424%" y2="18.75%" id="linearGradient-32">
            <stop stop-color="#FCFBFF" offset="0%"></stop>
            <stop stop-color="#F5EDE9" offset="22%"></stop>
            <stop stop-color="#A5ADBE" offset="100%"></stop>
        </linearGradient>
        <linearGradient x1="109.196788%" y1="-598%" x2="18.0467076%" y2="402%" id="linearGradient-33">
            <stop stop-color="#FCFBFF" offset="0%"></stop>
            <stop stop-color="#F5EDE9" offset="22%"></stop>
            <stop stop-color="#A5ADBE" offset="100%"></stop>
        </linearGradient>
        <linearGradient x1="223.267327%" y1="-47.029703%" x2="-359.90099%" y2="279.207921%" id="linearGradient-34">
            <stop stop-color="#AF3E5E" offset="0%"></stop>
            <stop stop-color="#000741" offset="96%"></stop>
        </linearGradient>
        <linearGradient x1="63.1971557%" y1="-145.943086%" x2="39.8480718%" y2="185.753365%" id="linearGradient-35">
            <stop stop-color="#AF3E5E" offset="0%"></stop>
            <stop stop-color="#000741" offset="96%"></stop>
        </linearGradient>
        <linearGradient x1="245.686365%" y1="192.108753%" x2="86.2608845%" y2="92.6392573%" id="linearGradient-36">
            <stop stop-color="#FCFBFF" offset="0%"></stop>
            <stop stop-color="#F5EDE9" offset="48%"></stop>
            <stop stop-color="#A5ADBE" offset="100%"></stop>
        </linearGradient>
        <linearGradient x1="108.417508%" y1="147.643098%" x2="-106.228956%" y2="-211.616162%" id="linearGradient-37">
            <stop stop-color="#3DB6D3" offset="0%"></stop>
            <stop stop-color="#3D6FD3" offset="50%"></stop>
            <stop stop-color="#252784" offset="100%"></stop>
        </linearGradient>
        <linearGradient x1="51.1529797%" y1="223.293001%" x2="49.065103%" y2="-54.4010017%" id="linearGradient-38">
            <stop stop-color="#3DB6D3" offset="0%"></stop>
            <stop stop-color="#3D6FD3" offset="50%"></stop>
            <stop stop-color="#252784" offset="100%"></stop>
        </linearGradient>
        <linearGradient x1="50%" y1="1101.92308%" x2="50%" y2="-831.410256%" id="linearGradient-39">
            <stop stop-color="#3DB6D3" offset="0%"></stop>
            <stop stop-color="#3D6FD3" offset="50%"></stop>
            <stop stop-color="#252784" offset="100%"></stop>
        </linearGradient>
        <linearGradient x1="50%" y1="701.408451%" x2="50%" y2="-360.56338%" id="linearGradient-40">
            <stop stop-color="#3DB6D3" offset="0%"></stop>
            <stop stop-color="#3D6FD3" offset="50%"></stop>
            <stop stop-color="#252784" offset="100%"></stop>
        </linearGradient>
        <linearGradient x1="50%" y1="2152.77778%" x2="50%" y2="-639.814815%" id="linearGradient-41">
            <stop stop-color="#3DB6D3" offset="0%"></stop>
            <stop stop-color="#3D6FD3" offset="50%"></stop>
            <stop stop-color="#252784" offset="100%"></stop>
        </linearGradient>
        <linearGradient x1="-9.85915493%" y1="223.239437%" x2="214.788732%" y2="-428.169014%" id="linearGradient-42">
            <stop stop-color="#3DB6D3" offset="0%"></stop>
            <stop stop-color="#3D6FD3" offset="50%"></stop>
            <stop stop-color="#252784" offset="100%"></stop>
        </linearGradient>
    </defs>
    <g id="BitDust-2.0" stroke="none" stroke-width="1" fill="none" fill-rule="evenodd">
        <g id="Onboarding1" transform="translate(-765.000000, -317.000000)">
            <g id="astronaut" transform="translate(765.000000, 317.000000)">
                <circle id="Oval" fill="url(#linearGradient-1)" cx="112.5" cy="112.5" r="112.5"></circle>
                <path d="M199,184.40166 C172.088904,103.759203 85.404107,59.1241194 3.58707662,83.7811087 C-9.55009953,134.416744 14.2535669,187.357151 60.9751229,211.414663 C107.696679,235.472175 164.947245,224.267603 199,184.40166 Z" id="Path" fill="url(#linearGradient-2)"></path>
                <path d="M113,73.654914 C113,73.654914 188.531288,75.4264853 191.110798,46.1150327 C192.339917,34.6324847 185.342536,23.8616619 174.343981,20.3064598 C171.302173,19.0964303 169.295194,16.1686485 169.26557,12.8980707 C169.313338,10.412887 170.507319,8.08902121 172.500733,6.60141689 C174.494147,5.11381257 177.063555,4.62921351 179.462697,5.28836666 C197.559574,10.7238695 234.801255,26.3861704 222.588886,73.7354399 C209.207676,125.634427 121.826762,122.97707 121.826762,122.97707" id="Path" fill="url(#linearGradient-3)"></path>
                <path d="M14.644726,134 L79.3150187,134 C79.6933234,134 80,134.308983 80,134.690134 L80,212.309866 C80,212.691017 79.6933234,213 79.3150187,213 L35.556802,213 C29.8289032,212.989243 24.3398465,210.686408 20.2971668,206.598093 C16.2544872,202.509779 13.9893414,196.97088 14.0000377,191.199897 L14.0000377,134.649538 C14.0199413,134.29945 14.2972525,134.020053 14.644726,134 Z" id="Path" fill="url(#linearGradient-4)"></path>
                <path d="M21.5171042,147 L70.4828958,147 C70.7684846,147 71,147.23406 71,147.522788 L71,206.477163 C71,206.765891 70.7684846,206.999951 70.4828958,206.999951 L37.3882259,206.999951 C33.04546,207.010634 28.8769419,205.273998 25.8024046,202.173213 C22.7278672,199.072427 20.9999871,194.862325 21,190.471814 L21,147.522788 C21,147.23406 21.2315154,147 21.5171042,147 Z" id="Path" fill="url(#linearGradient-5)"></path>
                <path d="M67.158376,86.7049368 C70.7575595,117.633105 61.079755,203.490989 61.079755,203.490989 C61.079755,203.490989 60.7198367,206.914028 60,212.874144 C91.0913495,229.466189 128.119387,230.376002 159.977319,215.330678 C160.857119,211.303573 161.536965,207.276468 162.016856,203.450718 C170.015042,143.044139 126.584894,83 126.584894,83 L67.158376,86.7049368 Z" id="Path" fill="url(#linearGradient-6)"></path>
                <path d="M128.657256,86.7482921 L127.454852,84.3703433 L126.492929,83 L67.1743426,86.7885963 C70.7815539,117.742234 61.0821634,203.670822 61.0821634,203.670822 C61.0821634,203.670822 60.7214423,207.09668 60,213.061704 C76.1603446,221.619227 94.1608497,226.061481 112.424805,225.999357 C116.953268,225.989903 121.477088,225.707266 125.971888,225.152969 C143.406743,167.880678 123.60716,123.626649 117.955862,108.028918 C111.502962,89.4486745 128.657256,86.7482921 128.657256,86.7482921 Z" id="Path" fill="url(#linearGradient-7)"></path>
                <path d="M61.0780399,202.98022 C61.0780399,202.98022 60.7186933,206.436264 60,212.453846 C64.7107728,214.989754 69.5945086,217.177446 74.6134301,219 C83.3151765,208.055276 93.1696355,198.115611 104,189.359341 L63.2341198,182 C62.0362976,194.523077 61.0780399,202.98022 61.0780399,202.98022 Z" id="Path" fill="url(#linearGradient-8)"></path>
                <path d="M83.5521154,177 C88.1126094,177.605788 92.5680552,178.853956 96.7903167,180.708606 C103.013064,183.610994 110.662683,182.925708 108.680917,187.843643 C106.69915,192.761577 74,190.463854 74,190.463854" id="Path" fill="url(#linearGradient-9)"></path>
                <path d="M127,11.4565086 C127,11.4565086 116.117743,-6.20046425 91.7029382,2.32636545 C63.0717607,12.3011474 67.2078214,74 67.2078214,74 L122.181288,74 C122.181288,74 118.607411,64.3872061 125.072515,62.9794748 C131.53762,61.5717435 114.190259,16.3634577 114.190259,16.3634577" id="Path" fill="url(#linearGradient-10)"></path>
                <path d="M126,57.989867 C125.081747,45.9822672 113.783245,16.5636478 113.783245,16.5636478 L117.775648,15.0026598 C87.8326201,-4.80987975 75.6557887,18.2847371 75.1767003,19.2453451 C65.0359947,40.778974 67.1918928,74 67.1918928,74 L100.009452,74 C98.332642,74 85.0379375,72.679164 92.7432768,66.9955668 C100.448616,61.3119696 122.526609,63.2331855 122.526609,63.2331855 L126,57.989867 Z" id="Path" fill="url(#linearGradient-11)"></path>
                <circle id="Oval" fill="url(#linearGradient-12)" cx="81.5" cy="34.5" r="5.5"></circle>
                <path d="M128.881162,18.5944553 C131.187736,22.7353575 132.589196,27.306088 132.995408,32.0126895 C133.040352,32.8074938 132.753884,33.5859029 132.202364,34.1675954 C131.650845,34.7492879 130.882129,35.0837901 130.074293,35.0936134 C129.041757,35.0836003 128.161682,35.8293537 128.01717,36.8367677 C127.564603,39.8771531 126.289186,45.876847 122.709792,47.0930011 C117.937267,48.7550785 102.920268,49.6874634 100.287151,35.3368443 C97.9420302,22.5672256 110.367054,6.23022133 122.750935,12.3109921 C125.406059,13.7286183 127.548301,15.9244092 128.881162,18.5944553 Z" id="Path" fill="url(#linearGradient-13)"></path>
                <path d="M129.788694,35.3926807 C130.208282,35.3882792 130.621782,35.2923544 131,35.1116792 C130.555855,35.1116792 129.58681,34.7905346 130.434724,32.4220933 C130.598027,29.2051706 130.075145,25.9902822 128.900404,22.9884714 C129.419852,22.9260164 129.924947,22.7767225 130.394347,22.5468976 C129.891123,21.3409033 129.325081,20.161777 128.69852,19.0143072 C127.981361,17.5328055 127.026791,16.1770297 125.87214,15 L105.239569,18.6530196 L101,37.5202635 C103.134507,44.3112233 109.791527,48.6619473 116.908479,47.9173192 C120.502019,43.1804367 124.014805,37.4399773 119.775236,37.1991189 C112.547779,36.7976882 114.122476,26.1999171 120.825034,26.6013479 C127.527591,27.0027786 126.6393,35.1919653 126.6393,35.1919653 L129.102288,35.1919653 L129.707941,35.1919653 L129.788694,35.3926807 Z" id="Path" fill="url(#linearGradient-14)"></path>
                <path d="M128.471496,35.0709811 C128.471496,35.0709811 118.725171,34.11327 117.390613,39.7398232 C116.25826,44.6081884 105.258259,41.4956271 106.228847,32.6367985 C107.078112,23.0995912 112.49723,20.3062669 123.942084,20.7053132 C135.386937,21.1043596 136.074437,15.9965665 130.938407,13.2032422 C125.116744,10.7756534 118.639228,10.3401833 112.537671,11.9661986 C108.695759,13.3229561 94.9861995,19.3884604 97.2509055,40.5778205 C99.5156116,61.7671807 122.607525,65.3985023 127.703113,61.7671807 C132.798702,58.1358591 126.408995,37.9042101 128.471496,35.0709811 Z" id="Path" fill="url(#linearGradient-15)"></path>
                <path d="M129,34.8779689 C129,34.8779689 119.149784,33.9148239 117.800999,39.5733006 C117.409574,41.0239658 116.013205,41.9887756 114.490345,41.8607699 C113.925142,41.8675869 113.361552,41.8001028 112.814582,41.6601147 L111.629287,41.2588043 L110.566608,40.7371007 C109.486906,40.0850157 108.566067,39.2082744 107.869038,38.1687142 L107.623805,37.7674038 L107.296826,37.1654382 L107.010721,36.4430794 C106.640266,35.426422 106.460252,34.3523307 106.479381,33.2727273 C106.479381,33.005187 106.479381,32.7376467 106.479381,32.4701065 C107.296826,23.3603604 112.283243,20.4307944 122.50131,20.4307944 L116.247853,19.5077805 C114.147068,19.2174586 112.553742,17.5008501 112.453783,15.4201454 C112.353824,13.3394407 113.775505,11.4831939 115.83913,11 L115.144302,11 L114.899068,11 L114.367729,11 L113.959006,11 L113.591155,11 L112.896327,11.2006552 C111.607967,11.652805 110.363244,12.2168741 109.176951,12.8861589 C108.47383,13.2796314 107.791729,13.7082591 107.133337,14.1703522 L105.702808,15.2538903 L104.967107,15.8959869 C104.47664,16.3374283 104.027045,16.7788698 103.536578,17.3005733 C98.1985332,23.5902285 95.9688988,31.8768629 97.4466101,39.9344799 C97.4466101,40.5364455 97.4466101,41.0982801 97.6918437,41.6601147 L97.6918437,42.0614251 C97.6918437,42.6232596 97.8962051,43.1449631 98.0188219,43.7067977 C98.0188219,44.2285012 98.3049277,44.7100737 98.4275445,45.1916462 L98.4275445,45.5528256 C98.4275445,46.034398 98.7545227,46.5159705 98.958884,46.997543 L99.5310957,48.2416052 L99.5310957,48.5626536 L100.225924,49.8468468 L100.920753,50.9303849 L100.920753,51.2113022 L101.738198,52.3349713 L102.514771,53.2579853 L102.514771,53.4987715 L103.454833,54.4619165 L103.659195,54.4619165 L104.47664,55.2244062 L104.681001,55.2244062 L105.702808,56.027027 L105.948042,56.027027 L106.847231,56.6691237 L107.051593,56.6691237 L108.114272,57.3513514 L108.359505,57.3513514 L109.299567,57.8730549 L110.403119,58.3947584 L110.689225,58.3947584 L111.670159,58.7960688 L112.77371,59.1973792 L113.059816,59.1973792 L114.04075,59.5184275 L115.103429,59.7993448 L115.389535,59.7993448 L116.37047,60 C112.038009,59.036855 112.569349,54.4217854 120.089846,53.2178542 C127.610343,52.013923 123.809222,44.9107289 122.828288,38.4496314 C121.847353,31.988534 129,34.8779689 129,34.8779689 Z" id="Path" fill="url(#linearGradient-16)"></path>
                <circle id="Oval" fill="url(#linearGradient-17)" cx="81.5" cy="33.5" r="5.5"></circle>
                <path d="M65.8104358,74 L125.710519,74 C126.753095,74.0060068 127.700844,74.5863533 128.152098,75.495082 L131.773774,82.695082 C132.120317,83.4112618 132.065988,84.2487369 131.629606,84.9174379 C131.193224,85.586139 130.434809,85.9940929 129.617046,86 L63.3688563,86 C62.6226937,85.9903686 61.9235842,85.6458316 61.4771234,85.067711 C61.0306625,84.4895905 60.8876151,83.7436216 61.0900488,83.0491803 L63.2467774,75.8885246 C63.5838384,74.7857724 64.6213267,74.0215044 65.8104358,74 Z" id="Path" fill="url(#linearGradient-18)"></path>
                <rect id="Rectangle" fill="url(#linearGradient-19)" x="76" y="45" width="5" height="2" rx="0.18"></rect>
                <rect id="Rectangle" fill="url(#linearGradient-20)" x="76" y="49" width="5" height="2" rx="0.18"></rect>
                <rect id="Rectangle" fill="url(#linearGradient-21)" x="76" y="53" width="5" height="2" rx="0.18"></rect>
                <path d="M63.23657,75.8885246 L61.0896397,83.0491803 C60.8881257,83.7436216 61.0305232,84.4895905 61.4749557,85.067711 C61.9193883,85.6458316 62.6153216,85.9903686 63.3580943,86 L95.7645881,86 C86.2856887,84.8983607 92.9290199,82.4983607 111.360213,80.6491803 C132.343418,78.5245902 122.864519,74 122.864519,74 L65.8290895,74 C64.6303425,74.0043384 63.5765072,74.7720063 63.23657,75.8885246 Z" id="Path" fill="url(#linearGradient-22)"></path>
                <rect id="Rectangle" fill="url(#linearGradient-23)" x="101" y="106" width="5" height="2" rx="0.18"></rect>
                <rect id="Rectangle" fill="url(#linearGradient-24)" x="101" y="110" width="5" height="2" rx="0.18"></rect>
                <rect id="Rectangle" fill="url(#linearGradient-24)" x="101" y="115" width="5" height="2" rx="0.18"></rect>
                <path d="M65.6410397,74.048931 C65.6410397,74.048931 3.47390524,78.6383883 0.085171107,137.496165 C-2.61774778,185.806242 59.751097,190.798284 82.0199213,190.999576 C84.0667476,191.021078 86.0371608,190.224695 87.4921239,188.787875 C88.947087,187.351054 89.7657127,185.393174 89.7655993,183.35048 C89.7599567,179.781975 87.2824384,176.691501 83.7949725,175.902677 C69.2718262,172.56123 33.0446447,162.174563 36.3930368,141.884331 C40.4272441,118.494202 66.3268549,123.325209 82.5443682,118.494202 C100.940354,113.01906 98.4794871,72.3983367 65.6410397,74.048931 Z" id="Path" fill="url(#linearGradient-25)"></path>
                <path d="M36.1151066,143.004993 L36.1151066,142.55922 C38.8774515,125.781932 52.8092781,123.431491 66.3807988,121.688922 C68.1035877,121.292451 69.8595551,121.061783 71.6252508,121 C70.3441633,121 40.158539,121.243149 25.4660668,139.88458 C13.4558715,155.284022 -3.23830004,146.165931 2.40649176,123.147817 C1.13070977,128.052929 0.352690249,133.077012 0.0845206634,138.142011 C-2.59775629,186.77183 59.2947836,191.796911 81.393543,191.999535 C85.193007,192.041496 88.4402718,189.238828 89,185.43451 L89,184.299814 C89,184.299814 14.736959,174.533325 36.1151066,143.004993 Z" id="Path" fill="url(#linearGradient-26)"></path>
                <path d="M54.7393687,85.2249264 L65.8358607,85.223338 C66.1838,85.2232932 66.4658969,85.5053175 66.4659417,85.8532569 C66.4659417,85.8533106 66.4659417,85.8533642 66.4659417,85.8534178 L66.4635346,102.311155 C66.4634905,102.659032 66.1814922,102.941031 65.8336156,102.941075 L54.7371237,102.942825 C54.3891843,102.94287 54.1070874,102.660845 54.1070427,102.312906 C54.1070427,102.312852 54.1070427,102.312799 54.1070427,102.312745 L54.1094498,85.8550075 C54.1094939,85.5071309 54.3914922,85.2251321 54.7393687,85.2250873 Z" id="Rectangle" fill="url(#linearGradient-27)" transform="translate(60.286492, 94.083081) rotate(-14.020000) translate(-60.286492, -94.083081) "></path>
                <path d="M63.9934603,87.0045074 C63.6621144,85.5942426 62.3182063,84.7322745 60.9854764,85.0752191 L59.3627483,85.4946296 C58.8988568,85.6134055 58.4993549,85.9244971 58.2538167,86.358153 C58.0082784,86.7918089 57.9372475,87.3117463 58.05665,87.8013874 L59.0065397,91.9954926 C59.3378856,93.4057574 60.6817937,94.2677255 62.0145236,93.9247809 L63.6372517,93.5053704 C64.1011432,93.3865945 64.5006451,93.0755029 64.7461833,92.641847 C64.9917216,92.2081911 65.0627525,91.6882537 64.94335,91.1986126 L63.9934603,87.0045074 Z" id="Path" fill="url(#linearGradient-28)"></path>
                <path d="M97.6198014,170.959254 C102.999029,170.932794 107.793374,167.532077 109.63668,162.435462 C111.192743,158.095745 111.992316,153.517164 112,148.902427 C112,127.411159 88.7673672,110 68.2185041,110 C58.1680693,110.18051 48.6005704,114.380962 41.6215708,121.676944 C34.6425712,128.972925 30.8240027,138.766527 31.0062354,148.902427 L31.0062354,149.144809 C31.1601183,161.307867 41.0160112,171.067233 53.0772365,170.999651 L97.6198014,170.959254 Z" id="Path" fill="url(#linearGradient-29)"></path>
                <path d="M109.981558,162.35925 C110.443048,161.022598 110.833832,159.662123 111.152254,158.283583 C111.526676,156.72586 111.80975,155.147194 112,153.555809 C112,152.862946 112,152.210839 112,151.517976 L112,150.988139 C112,150.254519 112,149.480142 112,148.705766 C111.56661,137.778763 106.326771,127.616834 97.7094322,120.99123 C93.3104028,117.207939 87.7436294,115.089535 81.9655864,115 C64.6352409,115.245941 50.7782004,129.619152 51.0026895,147.116256 L51.0026895,147.401552 C51.2236152,160.547818 61.8781765,171.068524 74.9010401,170.999664 L99.5260298,170.999664 L100.2123,170.999664 L100.494882,170.999664 L101.302259,170.795881 L102.150004,170.510584 C103.184472,170.001727 104.148136,169.35768 105.016191,168.59502 L105.258404,168.59502 C107.435286,167.061319 109.085883,164.882109 109.981558,162.35925 Z" id="Path" fill="url(#linearGradient-30)"></path>
                <path d="M102.809979,147.995213 C101.07759,148.086051 99.5454897,146.874617 99.2251013,145.160643 C97.9957807,140.048767 95.1730862,135.465858 91.1691956,132.081125 C89.8209744,130.895066 89.6102269,128.864656 90.6858412,127.42433 C91.2512487,126.638728 92.120047,126.129332 93.0785948,126.021403 C94.0371426,125.913475 94.9965093,126.217027 95.7207823,126.857416 C100.842032,131.249212 104.416175,137.18574 105.911503,143.783851 C106.138053,144.766174 105.924725,145.798962 105.327872,146.609391 C104.731019,147.41982 103.810681,147.926364 102.809979,147.995213 Z" id="Path" fill="url(#linearGradient-31)"></path>
                <path d="M107.621564,177 L40.4989429,177 C38.0142453,177 36,174.985281 36,172.5 C36,170.014719 38.0142453,168 40.4989429,168 L107.581395,168 C110.034663,168.043826 112.000391,170.045765 112,172.5 C112.000875,174.93896 110.059077,176.934671 107.621564,177 Z" id="Path" fill="url(#linearGradient-32)"></path>
                <path d="M107.999629,167 L40.639945,167 C39.6861756,167.191478 39,168.028306 39,169 C39,169.971694 39.6861756,170.808522 40.639945,171 L108.360055,171 C109.313824,170.808522 110,169.971694 110,169 C110,168.028306 109.313824,167.191478 108.360055,167 L107.999629,167 Z" id="Path" fill="url(#linearGradient-33)"></path>
                <circle id="Oval" fill="url(#linearGradient-34)" cx="103" cy="158" r="4"></circle>
                <path d="M178.13035,5.32972498 C171.486773,3.86807934 164.641384,3.60901554 157.909163,4.56445388 C146.371191,6.09499608 140.106588,11.0491195 146.648737,12.8213263 C153.190885,14.593533 161.9534,14.7546427 161.001815,17.8560045 C160.05023,20.9573664 172.30189,19.6684887 174.879101,20.9170889 C177.456311,22.1656891 182.848627,8.95469334 178.13035,5.32972498 Z" id="Path" fill="url(#linearGradient-35)"></path>
                <path d="M178.429961,5 L174.413766,20.25 C185.341207,23.8339024 192.290502,34.6279988 191.080975,46.1385942 C190.237574,55.6445623 181.843727,61.8740053 171,66 C217.025595,49.8196286 179.956115,6.37533156 178.751256,5 L178.429961,5 Z" id="Path" fill="url(#linearGradient-36)"></path>
                <circle id="Oval" fill="url(#linearGradient-37)" cx="38" cy="33" r="12"></circle>
                <path d="M28,37.6607328 C30.1033914,42.5599227 35.0715262,45.5012242 40.2773137,44.9293121 C45.4831013,44.3574 49.7257611,40.4041929 50.7618251,35.1600999 C51.797889,29.9160069 49.3883759,24.5906441 44.8074076,22 C38.7023411,26.6276545 33.0711927,31.8746213 28,37.6607328 Z" id="Path" fill="url(#linearGradient-38)"></path>
                <circle id="Oval" fill="url(#linearGradient-39)" cx="32" cy="58" r="3"></circle>
                <circle id="Oval" fill="url(#linearGradient-40)" cx="161.5" cy="48.5" r="5.5"></circle>
                <circle id="Oval" fill="url(#linearGradient-41)" cx="152" cy="32" r="2"></circle>
                <circle id="Oval" fill="url(#linearGradient-42)" cx="195.5" cy="131.5" r="5.5"></circle>
            </g>
        </g>
    </g>
</svg>