<?xml version="1.0" encoding="UTF-8"?>
<svg width="217px" height="153px" viewBox="0 0 217 153" version="1.1" xmlns="http://www.w3.org/2000/svg" xmlns:xlink="http://www.w3.org/1999/xlink">
    <!-- Generator: Sketch 52.5 (67469) - http://www.bohemiancoding.com/sketch -->
    <title> _Key</title>
    <desc>Created with Sketch.</desc>
    <g id="BitDust-2.0" stroke="none" stroke-width="1" fill="none" fill-rule="evenodd">
        <g id="Onboarding2" transform="translate(-769.000000, -280.000000)">
            <g id="-_Key" transform="translate(769.000000, 280.000000)">
                <g id="Group" transform="translate(0.000000, 49.000000)">
                    <path d="M216.312141,48.2936458 L193.851278,31.0459151 L91.2224133,31.0459151 C82.9291717,17.2477306 67.0337919,6.89909226 49.0651017,6.89909226 C22.4576181,6.89909226 0.687858852,23.4569137 0.687858852,50.3633735 C0.687858852,77.2698333 22.4576181,103.831338 49.0651017,103.831338 C67.0337919,103.831338 86.0391373,92.7927908 94.6779306,78.9946063 L193.851278,78.9946063 L216.312141,48.2936458 Z" id="Path" fill="#024C8C"></path>
                    <path d="M216.312141,48.2936458 L193.851278,24.1468229 L91.2224133,24.1468229 C82.9291717,10.3486384 67.0337919,0 49.0651017,0 C22.4576181,0 0.687858852,22.0770952 0.687858852,48.6386004 C0.687858852,75.2001056 22.4576181,96.9322462 49.0651017,96.9322462 C67.0337919,96.9322462 82.9291717,85.8936986 91.2224133,72.0955141 L193.505727,72.0955141 L216.312141,48.2936458 Z" id="Path" fill="#408BFF"></path>
                    <path d="M0.687858852,48.983555 C0.687858852,75.5450602 22.4576181,97.2772008 49.0651017,97.2772008 C67.0337919,97.2772008 82.9291717,86.2386532 91.2224133,72.4404687 L193.505727,72.4404687 L215.966589,48.2936458 L193.505727,24.1468229 L91.2224133,24.1468229 C82.9291717,10.3486384 67.0337919,0 49.0651017,0" id="Path" fill="#3EB3FF"></path>
                    <path d="M0.687858852,48.983555 C0.687858852,75.5450602 22.4576181,96.9322462 49.0651017,96.9322462 C67.0337919,96.9322462 82.9291717,86.2386532 91.2224133,72.4404687 L193.505727,72.4404687 L215.966589,48.2936458 L193.505727,24.1468229 L91.2224133,24.1468229" id="Path" fill="#3393F2"></path>
                    <path d="M0.687858852,48.983555 C0.687858852,75.5450602 22.4576181,97.2772008 49.0651017,97.2772008 C67.0337919,97.2772008 82.9291717,86.2386532 91.2224133,72.4404687 L193.505727,72.4404687 L215.966589,48.2936458" id="Path" fill="#0D6ECE"></path>
                    <path d="M49.0651017,97.2772008 C67.0337919,97.2772008 82.9291717,87.273517 91.2224133,72.4404687" id="Path" fill="#0098FF"></path>
                    <polyline id="Path" fill="#1A8AE2" points="91.2224133 72.4404687 193.851278 72.4404687 216.312141 48.2936458"></polyline>
                    <ellipse id="Oval" fill="#492E15" cx="19.0021008" cy="48.983555" rx="8.29324163" ry="14.1431391"></ellipse>
                    <path d="M10.7088592,48.983555 C10.7088592,56.9175111 14.5099282,63.1266941 19.0021008,63.1266941 C23.4942733,63.1266941 27.2953424,56.9175111 27.2953424,48.983555" id="Path" fill="#000000"></path>
                    <g transform="translate(91.222413, 62.091830)" fill="#0459BF" id="Path">
                        <polygon points="102.628865 10.3486384 93.2989683 0.689909226 87.0790371 6.89909226 81.2046576 1.03486384 75.3302781 6.89909226 69.4558986 1.03486384 63.5815191 6.89909226 57.7071397 1.03486384 51.4872084 6.89909226 45.6128289 1.03486384 39.7384495 6.89909226 33.86407 1.03486384 27.9896905 6.89909226 22.115311 1.03486384 15.8953798 6.89909226 10.0210003 0.689909226 0.345551734 10.3486384"></polygon>
                    </g>
                    <polygon id="Path" fill="#3E76FF" points="94.3323789 27.596369 190.741313 27.596369 105.044483 31.7358244"></polygon>
                    <polygon id="Path" fill="#3E76FF" points="193.851278 30.3560059 208.0189 45.8789635 192.12352 39.6697805"></polygon>
                    <path d="M18.3109973,65.5413764 C23.4942733,75.8900148 35.2430323,85.2037894 49.0651017,85.2037894 C62.8871711,85.2037894 74.2903783,75.8900148 79.819206,65.5413764 L18.3109973,65.5413764 Z" id="Path" fill="#0098FF"></path>
                </g>
                <path d="M140,48.5333333 C140,50.6133333 138.6,52 136.5,52 C134.4,52 133,50.6133333 133,48.5333333 L133,3.46666667 C133,1.38666667 134.4,0 136.5,0 C138.6,0 140,1.38666667 140,3.46666667 L140,48.5333333 Z" id="Path" fill="#337AF2"></path>
                <g id="Group" transform="translate(73.000000, 16.000000)" fill="#337AF2">
                    <path d="M93.4027778,37.2272727 C92.0138889,38.6454545 89.5833333,38.6454545 88.1944444,37.2272727 C86.8055556,35.8090909 86.8055556,33.3272727 88.1944444,31.9090909 L118.402778,1.06363636 C119.791667,-0.354545455 122.222222,-0.354545455 123.611111,1.06363636 C125,2.48181818 125,4.96363636 123.611111,6.38181818 L93.4027778,37.2272727 Z" id="Path"></path>
                    <path d="M31.5972222,37.2272727 C32.9861111,38.6454545 35.4166667,38.6454545 36.8055556,37.2272727 C38.1944444,35.8090909 38.1944444,33.3272727 36.8055556,31.9090909 L6.59722222,1.06363636 C5.20833333,-0.354545455 2.77777778,-0.354545455 1.38888889,1.06363636 C1.13242749e-14,2.48181818 1.13242749e-14,4.96363636 1.38888889,6.38181818 L31.5972222,37.2272727 Z" id="Path"></path>
                </g>
            </g>
        </g>
    </g>
</svg>