<?xml version="1.0" encoding="UTF-8"?>
<svg width="126px" height="160px" viewBox="0 0 126 160" version="1.1" xmlns="http://www.w3.org/2000/svg" xmlns:xlink="http://www.w3.org/1999/xlink">
    <!-- Generator: Sketch 52.5 (67469) - http://www.bohemiancoding.com/sketch -->
    <title>file, document, files, documentation</title>
    <desc>Created with Sketch.</desc>
    <defs>
        <linearGradient x1="-27.7849741%" y1="122.315593%" x2="49.9352332%" y2="-38.9355742%" id="linearGradient-1">
            <stop stop-color="#27E9DE" offset="0%"></stop>
            <stop stop-color="#03A4EC" offset="52%"></stop>
            <stop stop-color="#2547A8" offset="100%"></stop>
        </linearGradient>
        <linearGradient x1="-27.7849741%" y1="122.315593%" x2="49.9352332%" y2="-38.9355742%" id="linearGradient-2">
            <stop stop-color="#2ABBB3" offset="0%"></stop>
            <stop stop-color="#0393D4" offset="52%"></stop>
            <stop stop-color="#21409A" offset="100%"></stop>
        </linearGradient>
        <linearGradient x1="-27.7849741%" y1="122.315593%" x2="49.9352332%" y2="-38.9355742%" id="linearGradient-3">
            <stop stop-color="#27E9DE" offset="0%"></stop>
            <stop stop-color="#03A4EC" offset="90.4217847%"></stop>
            <stop stop-color="#2547A8" offset="100%"></stop>
        </linearGradient>
        <linearGradient x1="50%" y1="2900%" x2="50%" y2="-1536.66667%" id="linearGradient-4">
            <stop stop-color="#807AF3" offset="0%"></stop>
            <stop stop-color="#698EF3" offset="49%"></stop>
            <stop stop-color="#4863E9" offset="100%"></stop>
        </linearGradient>
        <linearGradient x1="50%" y1="2725.33333%" x2="50%" y2="3792%" id="linearGradient-5">
            <stop stop-color="#7AC8F3" offset="0%"></stop>
            <stop stop-color="#F39369" offset="49%"></stop>
            <stop stop-color="#E94867" offset="100%"></stop>
        </linearGradient>
    </defs>
    <g id="BitDust-2.0" stroke="none" stroke-width="1" fill="none" fill-rule="evenodd">
        <g id="Onboarding5" transform="translate(-793.000000, -322.000000)">
            <g id="Group-4" transform="translate(408.000000, 202.000000)">
                <g id="file,-document,-files,-documentation" transform="translate(385.000000, 120.000000)">
                    <path d="M108.245581,8.30671428e-06 L49.4841817,8.30671428e-06 C47.1344027,-0.00321065454 44.8804767,0.929231439 43.2224082,2.59048436 L2.59724317,43.1619108 C0.903741588,44.8440549 -0.0331775923,47.1398168 0.000898037168,49.5238153 L0.000898037168,142.285715 C0.000898037168,152.069045 7.94982214,160 17.755317,160 L108.245581,160 C118.051076,160 126,152.069045 126,142.285715 L126,17.7142931 C126,7.93096376 118.051076,8.30671428e-06 108.245581,8.30671428e-06 Z" id="Path" fill="url(#linearGradient-1)"></path>
                    <path d="M57,0 L49.4001192,8.30671428e-06 C47.0615495,-0.00321065454 44.8183758,0.929231439 43.1682169,2.59048436 L24.7005065,20.9523882 L2.58485324,43.1619108 C0.899430364,44.8440549 -0.0330193214,47.1398168 0.000893753157,49.5238153 L0.000893753157,142.285715 C0.000893753157,152.069045 7.91189818,160 17.6706167,160 L45.6001788,160 L45.6001788,52.3428627 C45.6489702,48.2998236 46.9798275,44.3772354 49.4001192,41.1428633 C54.3234598,34.4710828 56.9867565,26.3942922 57,18.0952455 L57,0 Z" id="Path" fill="url(#linearGradient-2)"></path>
                    <path d="M21.7427844,45.9618321 C35.1396746,45.9618321 46,35.1107182 46,21.7251908 L46,1 C45.0361505,1.42557846 44.1563849,2.02020923 43.4023769,2.75572519 L2.75721562,43.4045802 C2.02107528,44.1579486 1.42593973,45.036968 1,46 L21.7427844,45.9618321 Z" id="Path" fill="url(#linearGradient-3)"></path>
                    <path d="M46,74 C46,72.3431458 44.7128187,71 43.125,71 L25.875,71 C24.2871813,71 23,72.3431458 23,74 C23,75.6568542 24.2871813,77 25.875,77 L43.125,77 C44.7128187,77 46,75.6568542 46,74 Z" id="Path" fill="url(#linearGradient-4)"></path>
                    <path d="M101.111111,71 L54.8888889,71 C53.2933996,71 52,72.3431458 52,74 C52,75.6568542 53.2933996,77 54.8888889,77 L101.111111,77 C102.7066,77 104,75.6568542 104,74 C104,72.3431458 102.7066,71 101.111111,71 Z" id="Path" fill="url(#linearGradient-4)"></path>
                    <path d="M100.166667,94 L88.8333333,94 C87.2685265,94 86,95.3431458 86,97 C86,98.6568542 87.2685265,100 88.8333333,100 L100.166667,100 C101.731473,100 103,98.6568542 103,97 C103,95.3431458 101.731473,94 100.166667,94 Z" id="Path" fill="url(#linearGradient-4)"></path>
                    <path d="M80,97 C80,95.3431458 78.7240115,94 77.15,94 L25.85,94 C24.2759885,94 23,95.3431458 23,97 C23,98.6568542 24.2759885,100 25.85,100 L77.15,100 C78.7240115,100 80,98.6568542 80,97 Z" id="Path" fill="url(#linearGradient-4)"></path>
                    <path d="M63,120 C63,118.343146 61.7208136,117 60.1428571,117 L25.8571429,117 C24.2791864,117 23,118.343146 23,120 C23,121.656854 24.2791864,123 25.8571429,123 L60.1428571,123 C61.7208136,123 63,121.656854 63,120 Z" id="Path" fill="url(#linearGradient-4)"></path>
                    <path d="M101.083333,117 L71.9166667,117 C70.3058361,117 69,118.343146 69,120 C69,121.656854 70.3058361,123 71.9166667,123 L101.083333,123 C102.694164,123 104,121.656854 104,120 C104,118.343146 102.694164,117 101.083333,117 Z" id="Path" fill="url(#linearGradient-4)"></path>
                    <path d="M46,71 C46,69.3431458 44.7128187,68 43.125,68 L25.875,68 C24.2871813,68 23,69.3431458 23,71 C23,72.6568542 24.2871813,74 25.875,74 L43.125,74 C44.7128187,74 46,72.6568542 46,71 Z" id="Path" fill="url(#linearGradient-5)"></path>
                    <path d="M101.111111,68 L54.8888889,68 C53.2933996,68 52,69.3431458 52,71 C52,72.6568542 53.2933996,74 54.8888889,74 L101.111111,74 C102.7066,74 104,72.6568542 104,71 C104,69.3431458 102.7066,68 101.111111,68 Z" id="Path" fill="url(#linearGradient-5)"></path>
                    <path d="M100.166667,92 L88.8333333,92 C87.2685265,92 86,93.3431458 86,95 C86,96.6568542 87.2685265,98 88.8333333,98 L100.166667,98 C101.731473,98 103,96.6568542 103,95 C103,93.3431458 101.731473,92 100.166667,92 Z" id="Path" fill="url(#linearGradient-5)"></path>
                    <path d="M80,95 C80,93.3431458 78.7240115,92 77.15,92 L25.85,92 C24.2759885,92 23,93.3431458 23,95 C23,96.6568542 24.2759885,98 25.85,98 L77.15,98 C78.7240115,98 80,96.6568542 80,95 Z" id="Path" fill="url(#linearGradient-5)"></path>
                    <path d="M63,117 C63,115.343146 61.7208136,114 60.1428571,114 L25.8571429,114 C24.2791864,114 23,115.343146 23,117 C23,118.656854 24.2791864,120 25.8571429,120 L60.1428571,120 C61.7208136,120 63,118.656854 63,117 Z" id="Path" fill="url(#linearGradient-5)"></path>
                    <path d="M101.083333,114 L71.9166667,114 C70.3058361,114 69,115.343146 69,117 C69,118.656854 70.3058361,120 71.9166667,120 L101.083333,120 C102.694164,120 104,118.656854 104,117 C104,115.343146 102.694164,114 101.083333,114 Z" id="Path" fill="url(#linearGradient-5)"></path>
                </g>
            </g>
        </g>
    </g>
</svg>