
<svg width="623px" height="176px" viewBox="0 0 623 176" version="1.1" xmlns="http://www.w3.org/2000/svg" xmlns:xlink="http://www.w3.org/1999/xlink">
    <g id="Icon" stroke="none" stroke-width="1" fill="none" fill-rule="evenodd">
        <g transform="translate(-149.000000, -820.000000)" id="logo-white">
            <g transform="translate(153.000000, 824.000000)">
                <path d="M253.00823,85.0830619 C261.123457,87.7752443 267,95.8517915 267,105.628664 C267,121.356678 256.366255,130 238.45679,130 L199,130 L199,43 L235.798354,43 C253.707819,43 264.481481,51.0765472 264.481481,66.6628664 C264.481481,76.014658 259.304527,82.8159609 253.00823,85.0830619 Z M221,77 L233.902439,77 C240.493902,77 244,74.4054054 244,68.9279279 C244,63.4504505 240.493902,61 233.902439,61 L221,61 L221,77 Z M221,111 L236.168539,111 C242.488764,111 246,107.571429 246,102.571429 C246,97.2857143 242.488764,94 236.168539,94 L221,94 L221,111 Z M299,129 L277,129 L277,66 L299,66 L299,129 Z M301,49.0710059 C301,56.3136095 295.241573,61 288.5,61 C281.758427,61 276,56.3136095 276,49.0710059 C276,41.6863905 281.758427,37 288.5,37 C295.241573,37 301,41.6863905 301,49.0710059 Z M339.701863,130 L317.900621,130 L317.900621,83.7142857 L307,83.7142857 L307,66.4982578 L317.900621,66.4982578 L317.900621,49 L339.701863,49 L339.701863,66.4982578 L352,66.4982578 L352,83.7142857 L339.701863,83.7142857 L339.701863,130 Z M383,110 L392.386667,110 C406.893333,110 415,100.934718 415,86.5697329 C415,72.0652819 406.893333,63 392.386667,63 L383,63 L383,110 Z M362,43 L394.531365,43 C421.594096,43 438,60.0032573 438,86.5 C438,112.996743 421.594096,130 394.531365,130 L362,130 L362,43 Z M507,129.586957 L484.983908,129.586957 L484.983908,124.076087 C481.618391,128.032609 475.308046,131 468.156322,131 C454.273563,131 446,121.815217 446,107.684783 L446,66 L467.875862,66 L467.875862,102.456522 C467.875862,107.826087 470.4,111.641304 476.009195,111.641304 C480.075862,111.641304 483.862069,108.956522 484.983908,104.576087 L484.983908,66 L507,66 L507,129.586957 Z M517.283379,124.961702 L517.283379,106.425532 C523.376022,111.340426 533.294278,114.429787 539.811989,114.429787 C544.20436,114.429787 547.038147,113.446809 547.038147,110.638298 C547.038147,108.110638 545.054496,107.12766 541.228883,106.285106 L536.269755,105.021277 C524.509537,102.493617 517,97.0170213 517,85.6425532 C517,72.4425532 528.051771,65 543.070845,65 C552.138965,65 559.081744,66.8255319 565.316076,70.6170213 L565.316076,88.7319149 C559.223433,84.3787234 552.422343,81.4297872 545.196185,81.4297872 C541.370572,81.4297872 538.820163,82.693617 538.820163,85.2212766 C538.820163,87.6085106 540.662125,88.4510638 543.779292,89.293617 L549.588556,90.9787234 C563.474114,94.6297872 569,100.246809 569,110.919149 C569,124.4 557.239782,131 541.512262,131 C532.585831,131 523.234332,128.893617 517.283379,124.961702 Z M606.701863,130 L584.900621,130 L584.900621,83.7142857 L574,83.7142857 L574,66.4982578 L584.900621,66.4982578 L584.900621,49 L606.701863,49 L606.701863,66.4982578 L619,66.4982578 L619,83.7142857 L606.701863,83.7142857 L606.701863,130 Z" id="BitDust" fill="#FFFFFF" fill-rule="nonzero"></path>
                <circle id="circle-copy-2" stroke="#FFFFFF" stroke-width="7" cx="84" cy="84" r="84"></circle>
                <g id="Group-Copy-2" transform="translate(26.000000, 28.000000)">
                    <path d="M62.1069334,18 L62.1069334,18.0268236 L62.374267,18.1609418 L62.374267,18.1341182 L62.1069334,18 Z M62,18.2414127 L62.374267,18.4291782 L62.374267,18.3996722 L62,18.2414127 Z" id="Shape" fill="#000000" fill-rule="nonzero"></path>
                    <path d="M61.9512195,17.9339207 L61.9512195,17.938326 L61.9753683,17.969163 L61.9850278,17.9823789 L61.9903405,17.9911894 L62,18 L62,17.9559471 L61.9512195,17.9339207 Z M60.0482975,17.030837 L60.0482975,17.0259912 L60.0434678,17.0259912 L60.038638,17.0215859 L60.0333253,17.0171806 L60.0284955,17.0171806 L60.0284955,17.0127753 L60.018836,17.0079295 L60.0135233,17.0035242 L60,17 L60.0140063,17.0132159 L60.0241488,17.0176211 L60.0434678,17.0352423 L60.0531273,17.0352423 L60.05844,17.0396476 L60.0632697,17.0352423 L60.0632697,17.030837 L60.0482975,17.030837 Z" id="Shape" fill="#000000" fill-rule="nonzero"></path>
                    <polygon id="Path" fill="#000000" points="61.9802551 17.9705729 61.9802551 17.9744965 61.9998045 18.0019618 62.0076243 18.0137326 62.0119251 18.0215799 62.0197449 18.0294271 62.0197449 17.990191"></polygon>
                    <polygon id="Shape" fill="#000000" fill-rule="nonzero" points="61 17 61 17.0268236 61.0534667 17.0268236 61.0802001 17.0536473 61.1871335 17.0536473 61.2165402 17.0831533 61.2432736 17.0831533 61.2700069 17.1099769 61.2700069 17"></polygon>
                    <polygon id="Shape" fill="#000000" fill-rule="nonzero" points="61 17 61 17.0268236 61.0534667 17.0268236 61.0802001 17.0536473 61.1871335 17.0536473 61.2165402 17.0831533 61.2432736 17.0831533 61.2700069 17.1099769 61.2700069 17"></polygon>
                    <path d="M61.1069334,17 L61.1069334,17.0268236 L61.1604001,17.0268236 L61.1871335,17.0536473 L61.2940669,17.0536473 L61.3234736,17.0831533 L61.350207,17.0831533 L61.3769404,17.1099769 L61.3769404,17 L61.1069334,17 Z M61.3475337,17.1877655 L61.3475337,17.1582595 L61.2673336,17.1314358 L61.2406002,17.1314358 L61.2406002,17.1046122 L61.1844602,17.1046122 L61.1844602,17.0777885 L61.1577268,17.0777885 L61.1042601,17.0482825 L61.0748534,17.0214589 L61,17 L61.0775267,17.0804709 L61.1336668,17.1072945 L61.2406002,17.2145891 L61.2940669,17.2145891 L61.3234736,17.2414127 L61.350207,17.2145891 L61.374267,17.2145891 L61.374267,17.1877655 L61.3475337,17.1877655 Z" id="Shape" fill="#000000" fill-rule="nonzero"></path>
                    <path d="M61.1069334,17 L61.1069334,17.0268236 L61.1604001,17.0268236 L61.1871335,17.0536473 L61.2940669,17.0536473 L61.3234736,17.0831533 L61.350207,17.0831533 L61.3769404,17.1099769 L61.3769404,17 L61.1069334,17 Z M61.3475337,17.1877655 L61.3475337,17.1582595 L61.2673336,17.1314358 L61.2406002,17.1314358 L61.2406002,17.1046122 L61.1844602,17.1046122 L61.1844602,17.0777885 L61.1577268,17.0777885 L61.1042601,17.0482825 L61.0748534,17.0214589 L61,17 L61.0775267,17.0804709 L61.1336668,17.1072945 L61.2406002,17.2145891 L61.2940669,17.2145891 L61.3234736,17.2414127 L61.350207,17.2145891 L61.374267,17.2145891 L61.374267,17.1877655 L61.3475337,17.1877655 Z" id="Shape" fill="#000000" fill-rule="nonzero"></path>
                    <path d="M61.1069334,17 L61.1069334,17.0268236 L61.1604001,17.0268236 L61.1871335,17.0536473 L61.2940669,17.0536473 L61.3234736,17.0831533 L61.350207,17.0831533 L61.3769404,17.1099769 L61.3769404,17 L61.1069334,17 Z M61.3475337,17.1877655 L61.3475337,17.1582595 L61.2673336,17.1314358 L61.2406002,17.1314358 L61.2406002,17.1046122 L61.1844602,17.1046122 L61.1844602,17.0777885 L61.1577268,17.0777885 L61.1042601,17.0482825 L61.0748534,17.0214589 L61,17 L61.0775267,17.0804709 L61.1336668,17.1072945 L61.2406002,17.2145891 L61.2940669,17.2145891 L61.3234736,17.2414127 L61.350207,17.2145891 L61.374267,17.2145891 L61.374267,17.1877655 L61.3475337,17.1877655 Z" id="Shape" fill="#000000" fill-rule="nonzero"></path>
                    <path d="M61.1069334,17 L61.1069334,17.0268236 L61.1604001,17.0268236 L61.1871335,17.0536473 L61.2940669,17.0536473 L61.3234736,17.0831533 L61.350207,17.0831533 L61.3769404,17.1099769 L61.3769404,17 L61.1069334,17 Z M61.3475337,17.1877655 L61.3475337,17.1582595 L61.2673336,17.1314358 L61.2406002,17.1314358 L61.2406002,17.1046122 L61.1844602,17.1046122 L61.1844602,17.0777885 L61.1577268,17.0777885 L61.1042601,17.0482825 L61.0748534,17.0214589 L61,17 L61.0775267,17.0804709 L61.1336668,17.1072945 L61.2406002,17.2145891 L61.2940669,17.2145891 L61.3234736,17.2414127 L61.350207,17.2145891 L61.374267,17.2145891 L61.374267,17.1877655 L61.3475337,17.1877655 Z" id="Shape" fill="#000000" fill-rule="nonzero"></path>
                    <path d="M61.1069334,17 L61.1069334,17.0268236 L61.1604001,17.0268236 L61.1871335,17.0536473 L61.2940669,17.0536473 L61.3234736,17.0831533 L61.350207,17.0831533 L61.3769404,17.1099769 L61.3769404,17 L61.1069334,17 Z M61.3475337,17.1877655 L61.3475337,17.1582595 L61.2673336,17.1314358 L61.2406002,17.1314358 L61.2406002,17.1046122 L61.1844602,17.1046122 L61.1844602,17.0777885 L61.1577268,17.0777885 L61.1042601,17.0482825 L61.0748534,17.0214589 L61,17 L61.0775267,17.0804709 L61.1336668,17.1072945 L61.2406002,17.2145891 L61.2940669,17.2145891 L61.3234736,17.2414127 L61.350207,17.2145891 L61.374267,17.2145891 L61.374267,17.1877655 L61.3475337,17.1877655 Z" id="Shape" fill="#000000" fill-rule="nonzero"></path>
                    <path d="M61.1069334,17 L61.1069334,17.0268236 L61.1604001,17.0268236 L61.1871335,17.0536473 L61.2940669,17.0536473 L61.3234736,17.0831533 L61.350207,17.0831533 L61.3769404,17.1099769 L61.3769404,17 L61.1069334,17 Z M61.3475337,17.1877655 L61.3475337,17.1582595 L61.2673336,17.1314358 L61.2406002,17.1314358 L61.2406002,17.1046122 L61.1844602,17.1046122 L61.1844602,17.0777885 L61.1577268,17.0777885 L61.1042601,17.0482825 L61.0748534,17.0214589 L61,17 L61.0775267,17.0804709 L61.1336668,17.1072945 L61.2406002,17.2145891 L61.2940669,17.2145891 L61.3234736,17.2414127 L61.350207,17.2145891 L61.374267,17.2145891 L61.374267,17.1877655 L61.3475337,17.1877655 Z" id="Shape" fill="#000000" fill-rule="nonzero"></path>
                    <path d="M61.1069334,17 L61.1069334,17.0268236 L61.1604001,17.0268236 L61.1871335,17.0536473 L61.2940669,17.0536473 L61.3234736,17.0831533 L61.350207,17.0831533 L61.3769404,17.1099769 L61.3769404,17 L61.1069334,17 Z M61.3475337,17.1877655 L61.3475337,17.1582595 L61.2673336,17.1314358 L61.2406002,17.1314358 L61.2406002,17.1046122 L61.1844602,17.1046122 L61.1844602,17.0777885 L61.1577268,17.0777885 L61.1042601,17.0482825 L61.0748534,17.0214589 L61,17 L61.0775267,17.0804709 L61.1336668,17.1072945 L61.2406002,17.2145891 L61.2940669,17.2145891 L61.3234736,17.2414127 L61.350207,17.2145891 L61.374267,17.2145891 L61.374267,17.1877655 L61.3475337,17.1877655 Z" id="Shape" fill="#000000" fill-rule="nonzero"></path>
                    <path d="M61.1069334,17 L61.1069334,17.0268236 L61.1604001,17.0268236 L61.1871335,17.0536473 L61.2940669,17.0536473 L61.3234736,17.0831533 L61.350207,17.0831533 L61.3769404,17.1099769 L61.3769404,17 L61.1069334,17 Z M61.3475337,17.1877655 L61.3475337,17.1582595 L61.2673336,17.1314358 L61.2406002,17.1314358 L61.2406002,17.1046122 L61.1844602,17.1046122 L61.1844602,17.0777885 L61.1577268,17.0777885 L61.1042601,17.0482825 L61.0748534,17.0214589 L61,17 L61.0775267,17.0804709 L61.1336668,17.1072945 L61.2406002,17.2145891 L61.2940669,17.2145891 L61.3234736,17.2414127 L61.350207,17.2145891 L61.374267,17.2145891 L61.374267,17.1877655 L61.3475337,17.1877655 Z" id="Shape" fill="#000000" fill-rule="nonzero"></path>
                    <path d="M61.1069334,17 L61.1069334,17.0268236 L61.1604001,17.0268236 L61.1871335,17.0536473 L61.2940669,17.0536473 L61.3234736,17.0831533 L61.350207,17.0831533 L61.3769404,17.1099769 L61.3769404,17 L61.1069334,17 Z M61.3475337,17.1877655 L61.3475337,17.1582595 L61.2673336,17.1314358 L61.2406002,17.1314358 L61.2406002,17.1046122 L61.1844602,17.1046122 L61.1844602,17.0777885 L61.1577268,17.0777885 L61.1042601,17.0482825 L61.0748534,17.0214589 L61,17 L61.0775267,17.0804709 L61.1336668,17.1072945 L61.2406002,17.2145891 L61.2940669,17.2145891 L61.3234736,17.2414127 L61.350207,17.2145891 L61.374267,17.2145891 L61.374267,17.1877655 L61.3475337,17.1877655 Z" id="Shape" fill="#000000" fill-rule="nonzero"></path>
                    <path d="M61.1069334,17 L61.1069334,17.0268236 L61.1604001,17.0268236 L61.1871335,17.0536473 L61.2940669,17.0536473 L61.3234736,17.0831533 L61.350207,17.0831533 L61.3769404,17.1099769 L61.3769404,17 L61.1069334,17 Z M61.3475337,17.1877655 L61.3475337,17.1582595 L61.2673336,17.1314358 L61.2406002,17.1314358 L61.2406002,17.1046122 L61.1844602,17.1046122 L61.1844602,17.0777885 L61.1577268,17.0777885 L61.1042601,17.0482825 L61.0748534,17.0214589 L61,17 L61.0775267,17.0804709 L61.1336668,17.1072945 L61.2406002,17.2145891 L61.2940669,17.2145891 L61.3234736,17.2414127 L61.350207,17.2145891 L61.374267,17.2145891 L61.374267,17.1877655 L61.3475337,17.1877655 Z" id="Shape" fill="#000000" fill-rule="nonzero"></path>
                    <path d="M61.9904535,17.9779736 L61.9852029,17.9735683 L61.9756563,17.938326 L61.9756563,17.9339207 L61.9136038,17.9162996 L61.9279236,17.9339207 L61.9279236,17.938326 L61.95179,17.969163 L61.9613365,17.9823789 L61.9665871,17.9911894 L61.9761337,17.9911894 L62,18 L61.9904535,17.9779736 Z M60.0190931,17 L60.0190931,17.0044053 L60.0286396,17.0044053 L60.0334129,17.0088106 L60.052506,17.0088106 L60.0577566,17.0136564 L60.0625298,17.0136564 L60.0673031,17.0180617 L60.0673031,17 L60.0190931,17 Z M60.0620525,17.030837 L60.0620525,17.0259912 L60.0477327,17.0215859 L60.0429594,17.0215859 L60.0429594,17.0171806 L60.0329356,17.0171806 L60.0329356,17.0127753 L60.0281623,17.0127753 L60.0186158,17.0079295 L60.0133652,17.0035242 L60,17 L60.0138425,17.0132159 L60.0238663,17.0176211 L60.0429594,17.0352423 L60.052506,17.0352423 L60.0577566,17.0396476 L60.0625298,17.0352423 L60.0668258,17.0352423 L60.0668258,17.030837 L60.0620525,17.030837 Z" id="Shape" fill="#000000" fill-rule="nonzero"></path>
                    <path d="M60.0623352,17 L60.0575402,17.0044444 L60.0527451,17 L60.0191801,17 L60.0191801,17.0044444 L60.0287701,17.0044444 L60.0335651,17.0088889 L60.0527451,17.0088889 L60.0580197,17.0137778 L60.0628147,17.0137778 L60.0676097,17.0182222 L60.0676097,17 L60.0623352,17 Z M60.0623352,17.0311111 L60.0623352,17.0262222 L60.0479501,17.0217778 L60.0431551,17.0217778 L60.0431551,17.0173333 L60.0330856,17.0173333 L60.0330856,17.0128889 L60.0282906,17.0128889 L60.0187006,17.008 L60.013426,17.0035556 L60,17 L60.0139055,17.0133333 L60.0239751,17.0177778 L60.0431551,17.0355556 L60.0527451,17.0355556 L60.0580197,17.04 L60.0628147,17.0355556 L60.0671302,17.0355556 L60.0671302,17.0311111 L60.0623352,17.0311111 Z M61.6303045,17.7955556 L61.6111244,17.7955556 L61.7262047,17.84 L61.6303045,17.7955556 Z M61.9947255,17.9822222 L61.9851355,17.9466667 L61.9851355,17.9422222 L61.9228003,17.9244444 L61.9371853,17.9422222 L61.9371853,17.9466667 L61.9611604,17.9777778 L61.9707504,17.9911111 L62,18 L61.9947255,17.9822222 Z" id="Shape" fill="#000000" fill-rule="nonzero"></path>
                    <polygon id="Shape" fill="#000000" fill-rule="nonzero" points="62.1069334 18 62 18 62.6416006 18.2682364"></polygon>
                    <polygon id="Shape" fill="#000000" fill-rule="nonzero" points="62.1069334 18 62 18 62.6416006 18.2682364"></polygon>
                    <path d="M62.7527812,18 L62.7033375,18 L63,18.2682364 L62.7527812,18 Z M62.0729295,18.2414127 L62.0988875,18.1609418 L62.1236094,18.1341182 L62.0494438,18.0804709 L62,18.0509649 L62.0618047,18.29506 L62.1359703,18.5632964 L62.0729295,18.2414127 Z" id="Shape" fill="#000000" fill-rule="nonzero"></path>
                    <polygon id="Shape" fill="#000000" fill-rule="nonzero" points="62.1069334 18.029506 62 18 62.1336668 18.2440951 62.1604001 18.1877655 62.2165402 18.1072945 62.2700069 18.0804709"></polygon>
                    <polygon id="Path" fill="#000000" points="61.9743903 17.9705729 61.98612 17.9862674 61.98612 17.990191 62.0056693 18.0176562 62.0134891 18.0294271 62.0216998 18.0294271 62.0256097 18.0211875 62.0256097 17.985875"></polygon>
                    <polygon id="Path" fill="#000000" points="62.0076243 17.9899948 62.0076243 17.9860712 61.9567959 17.9703767 61.9685255 17.9860712 61.9685255 17.9899948 61.9880749 18.0174601 62.0076243 18.0174601 62.0076243 18.0213837 62.015444 18.0213837 62.0197449 18.0253073 62.0432041 18.0296233"></polygon>
                    <polygon id="Path" fill="#000000" points="61.9745858 17.9764583 61.9863154 17.9921528 61.9863154 17.9960764 62.0058648 18.0235417 62.0254142 18.0235417 62.0254142 17.9921528"></polygon>
                    <polygon id="Path" fill="#000000" points="61.9745858 17.9764583 61.9863154 17.9921528 61.9863154 17.9960764 62.0058648 18.0235417 62.0254142 18.0235417 62.0254142 17.9921528"></polygon>
                    <polygon id="Shape" fill="#000000" fill-rule="nonzero" points="62 18 62.0802001 18.1072945 62.0802001 18.1341182 62.2138669 18.3218836 62.3475337 18.3218836 62.3475337 18.1072945"></polygon>
                    <polygon id="Shape" fill="#000000" fill-rule="nonzero" points="62 18 62.0802001 18.1072945 62.0802001 18.1341182 62.2138669 18.3218836 62.3475337 18.3218836 62.3475337 18.1072945"></polygon>
                    <polygon id="Shape" fill="#000000" fill-rule="nonzero" points="62 18 62.0802001 18.1072945 62.0802001 18.1341182 62.2138669 18.3218836 62.3475337 18.3218836 62.3475337 18.1072945"></polygon>
                    <polygon id="Shape" fill="#000000" fill-rule="nonzero" points="62 18 62.0802001 18.1072945 62.0802001 18.1341182 62.2138669 18.3218836 62.3475337 18.3218836 62.3475337 18.1072945"></polygon>
                    <path d="M114.699224,42.5229809 C112.974876,42.5229809 111.368097,43.0535896 110.039173,43.9571965 L62.0439057,17.7573113 L62.0439057,17.6904939 L61.9302555,17.6393983 L61.9851211,17.6476522 L62.0439057,17.6515826 L62.0439057,17.6240696 L62.0439057,17.6201391 L62.0125539,17.5729739 L62.0537031,17.5729739 L62.0125539,17.5729739 L62.0439057,17.5729739 L62.0439057,17.5965565 L62.0164729,17.5729739 L62.0439057,17.5729739 L62.0439057,17.5493913 C61.6520084,7.80977391 53.6259522,0 43.8246013,0 C33.79595,0 25.6131348,8.18316522 25.6131348,18.2450783 C25.6131348,23.7319652 28.03506,28.6607304 31.8678154,32.0098539 L16.7915271,43.8479304 C15.4982661,43.0107478 13.9541908,42.523767 12.3043033,42.523767 C7.7269431,42.523767 4,46.25768 4,50.8519652 C4,55.442713 7.72302413,59.1766261 12.3007762,59.1766261 C16.8781364,59.1766261 20.6046876,55.442713 20.6046876,50.8519652 C20.6046876,49.0832696 20.0521125,47.4442783 19.111559,46.0961391 L34.5601496,33.962887 C37.2681598,35.5665043 40.4229329,36.4901565 43.7893305,36.4901565 C47.0307129,36.4901565 50.0792818,35.6333217 52.7167505,34.1358261 L61.1229471,43.2033391 C57.0507425,46.1594191 54.3979898,50.9659478 54.3979898,56.382087 C54.3979898,60.5169043 55.945984,64.30152 58.4890055,67.1711304 L39.5094204,85.1607304 C36.8680327,83.0776 33.5408248,81.8355826 29.9314509,81.8355826 C21.3684954,81.8355826 14.3966429,88.8278261 14.3966429,97.4197565 C14.3966429,106.011294 21.3684954,113 29.9314509,113 C37.5816776,113 43.9617653,107.426643 45.2393504,100.112104 L69.8348235,100.112104 C70.5794284,106.353635 75.8935554,111.207722 82.3128328,111.207722 C89.2419686,111.207722 94.8809785,105.551433 94.8809785,98.6028174 C94.8809785,91.6498783 89.2415767,85.9939826 82.3128328,85.9939826 C75.9366641,85.9939826 70.6499699,90.7847896 69.8504994,96.9677565 L45.4627319,96.9677565 C45.3604467,93.3281739 44.0044821,89.9951652 41.8137763,87.3932174 L60.8403891,69.3564522 C63.5601562,71.4238609 66.9461487,72.6501565 70.6143072,72.6501565 C79.561322,72.6501565 86.8349355,65.3513391 86.8349355,56.382087 C86.8349355,47.4128348 79.561322,40.1179478 70.6143072,40.1179478 C68.2433287,40.1179478 65.9899193,40.6289043 63.9598915,41.5521635 L55.381652,32.2959896 C58.681427,29.5529391 60.9975399,25.6653461 61.7303878,21.2475374 L61.6520084,21.2318157 L61.6520084,21.2160939 C61.6520084,21.2121635 61.6520084,21.2121635 61.6520084,21.208233 L61.6520084,21.1649983 L61.7303878,21.2046957 L61.7382258,21.2086261 L61.7499827,21.216487 L107.715614,46.2647548 L107.719533,46.2647548 L107.759115,46.284407 C106.896941,47.5932417 106.395312,49.1654157 106.395312,50.8515722 C106.395312,55.44232 110.122255,59.176233 114.699616,59.176233 C119.276976,59.176233 123,55.44232 123,50.8515722 C122.999608,46.2568939 119.276584,42.5229809 114.699224,42.5229809 Z M12.3003843,55.9689983 C9.48616998,55.9689983 7.19748988,53.6732313 7.19748988,50.8511791 C7.19748988,48.029127 9.48616998,45.733753 12.3003843,45.733753 C15.1142068,45.733753 17.4028869,48.029127 17.4028869,50.8511791 C17.4028869,53.6732313 15.1142068,55.9689983 12.3003843,55.9689983 Z M29.9318428,108.184824 C24.0141939,108.184824 19.1977764,103.35432 19.1977764,97.4193635 C19.1977764,91.4804765 24.0141939,86.6499722 29.9318428,86.6499722 C35.8534107,86.6499722 40.6698282,91.4804765 40.6698282,97.4193635 C40.6698282,103.35432 35.8534107,108.184824 29.9318428,108.184824 Z M82.3128328,90.8123026 C86.596662,90.8123026 90.0802369,94.3068522 90.0802369,98.6024243 C90.0802369,102.897997 86.5962701,106.392546 82.3128328,106.392546 C78.0293956,106.392546 74.5458207,102.897997 74.5458207,98.6024243 C74.5458207,94.3068522 78.0293956,90.8123026 82.3128328,90.8123026 Z M70.6146991,44.928407 C76.9124884,44.928407 82.0345858,50.0694157 82.0345858,56.382087 C82.0345858,62.6979026 76.9128802,67.8353739 70.6146991,67.8353739 C64.3204369,67.8353739 59.1948125,62.6982957 59.1948125,56.382087 C59.1948125,50.0694157 64.3208288,44.928407 70.6146991,44.928407 Z M43.7893305,31.6749809 C36.4059858,31.6749809 30.3982006,25.6496243 30.3982006,18.2446852 C30.3982006,10.8397461 36.4059858,4.81438957 43.7893305,4.81438957 C51.1726752,4.81438957 57.1804605,10.8397461 57.1804605,18.2446852 C57.1804605,25.6496243 51.1726752,31.6749809 43.7893305,31.6749809 Z M60.4763166,16.8179374 L60.4723976,16.8179374 L60.4684786,16.8218678 L60.4641677,16.8179374 L60.4563298,16.8179374 L60.4406539,16.8022157 L60.4324241,16.7982852 L60.4214509,16.7864939 L60.432816,16.7904243 L60.4371268,16.7943548 L60.4449648,16.7986783 L60.4488838,16.7986783 L60.4488838,16.8026087 L60.4571136,16.8026087 L60.4571136,16.8065391 L60.4610326,16.8065391 L60.4727895,16.8104696 L60.4727895,16.814793 L60.4763166,16.814793 L60.4763166,16.8179374 Z M60.4763166,16.8022157 L60.4723976,16.7982852 L60.4684786,16.7982852 L60.4641677,16.7939617 L60.4484919,16.7939617 L60.4445729,16.7900313 L60.4367349,16.7900313 L60.4367349,16.7864939 L60.4759247,16.7864939 L60.4759247,16.8022157 L60.4763166,16.8022157 Z M61.5344392,17.5332765 L61.5148443,17.4975096 L61.5305202,17.501833 L61.5540341,17.5096939 L61.5461961,17.5136243 L61.5379663,17.5254157 L61.5575611,17.5725809 L61.5344392,17.5332765 Z M61.7382258,17.4900417 L61.7539017,17.4900417 L61.8322811,17.5293461 L61.7382258,17.4900417 Z M114.699224,55.9689983 C111.885009,55.9689983 109.596329,53.6732313 109.596329,50.8511791 C109.596329,48.029127 111.885009,45.733753 114.699224,45.733753 C117.513046,45.733753 119.801726,48.029127 119.801726,50.8511791 C119.801726,53.6732313 117.513046,55.9689983 114.699224,55.9689983 Z" id="Shape" fill="#FFFFFF" fill-rule="nonzero"></path>
                    <circle id="Oval" fill="#FFFFFF" cx="95" cy="20" r="4"></circle>
                    <path d="M70,81.4993841 C70,84.5383553 67.7614782,87 65.0003733,87 C62.2377753,87 60,84.5383553 60,81.4993841 C60,78.4624659 62.237402,76 65.0003733,76 C67.7614782,76 70,78.4624659 70,81.4993841 Z" id="Path" fill="#FFFFFF"></path>
                    <path d="M18,24.9992589 C18,27.2088004 16.2093368,29 14,29 C11.7914042,29 10,27.2088004 10,24.9992589 C10,22.7908291 11.7914042,21 14,21 C16.2093368,21 18,22.7908291 18,24.9992589 Z" id="Path" fill="#FFFFFF"></path>
                    <circle id="Oval" fill="#FFFFFF" cx="100" cy="75" r="3"></circle>
                    <path d="M39,67.5003971 C39,69.9860584 36.985442,72 34.499603,72 C32.014558,72 30,69.9860584 30,67.5003971 C30,65.0139416 32.014558,63 34.499603,63 C36.985442,63 39,65.0139416 39,67.5003971 Z" id="Path" fill="#FFFFFF"></path>
                    <path d="M21,69.5008131 C21,71.434371 19.4339645,73 17.5008131,73 C15.5676617,73 14,71.4339645 14,69.5008131 C14,67.5676617 15.5672552,66 17.5008131,66 C19.434371,66 21,67.5672552 21,69.5008131 Z" id="Path" fill="#FFFFFF"></path>
                    <circle id="Oval" fill="#FFFFFF" cx="3" cy="37" r="3"></circle>
                    <circle id="Oval" fill="#FFFFFF" cx="57" cy="109" r="3"></circle>
                    <circle id="Oval" fill="#FFFFFF" cx="91" cy="48" r="3"></circle>
                    <circle id="Oval" fill="#FFFFFF" cx="37" cy="48" r="3"></circle>
                    <circle id="Oval" fill="#FFFFFF" cx="71" cy="11" r="3"></circle>
                </g>
            </g>
        </g>
    </g>
</svg>