<?xml version="1.0" encoding="utf-8"?>
<svg version="1.1" id="Layer_1" xmlns="http://www.w3.org/2000/svg" xmlns:xlink="http://www.w3.org/1999/xlink" x="0px" y="0px"
	 viewBox="0 0 14.4 16.6" style="enable-background:new 0 0 14.4 16.6;" xml:space="preserve">
<style type="text/css">
	.st0{fill:#B3B3B3;}
</style>
<path class="st0" d="M7.8,0.2H3.4c-1.6,0-3,1.3-3,3v10.2c0,1.6,1.3,2.9,3,2.9h7.7c1.6,0,2.9-1.3,2.9-2.9V6.5L7.8,0.2z M2.1,3.2
	c0-0.7,0.6-1.3,1.3-1.3h3v2.9c0,1.6,1.3,3,2.9,3h3v5.5c0,0.7-0.6,1.3-1.3,1.3H3.4c-0.7,0-1.3-0.6-1.3-1.3C2.1,13.4,2.1,3.2,2.1,3.2z
	 M8.1,4.9v-2l3.3,3.3H9.3C8.7,6.2,8.1,5.6,8.1,4.9z"/>
</svg>
